<?xml version="1.0" encoding="utf-8"?>
<!-- Generator: Adobe Illustrator 23.0.0, SVG Export Plug-In . SVG Version: 6.00 Build 0)  -->
<svg version="1.1" id="Layer_1" xmlns="http://www.w3.org/2000/svg" xmlns:xlink="http://www.w3.org/1999/xlink" x="0px" y="0px"
	 viewBox="0 0 434 364" style="enable-background:new 0 0 434 364;" xml:space="preserve">
<style type="text/css">
	.st0{opacity:0.27;fill:#A9EADA;enable-background:new    ;}
	.st1{fill:#DAE8EF;}
	.st2{fill:#274921;}
	.st3{fill:#FFB715;}
	.st4{fill:#FFFFFF;stroke:#97AF91;stroke-miterlimit:10;}
	.st5{fill:#96AF91;}
	.st6{fill:#EF5120;}
	.st7{fill:#FFFFFF;}
	.st8{fill:#161616;}
	.st9{fill:#7F78D4;}
	.st10{fill:#3B3B8E;}
	.st11{fill:#A8865A;}
	.st12{fill:#070401;}
	.st13{fill:#111111;}
	.st14{fill:#0D233A;}
	.st15{fill:#FFBB10;}
	.st16{fill:#477C33;}
	.st17{fill:#A5710A;}
	.st18{fill:#050505;}
</style>
<path class="st0" d="M170.4,199.5c11.1-18.5,62.9-3.3,46.5-11.3c-16.4-8,3.1-23.1,30-22.6s91.1-9,99.5,13.3s-24.2,36.3-19.5,43.8
	c4.7,7.5,39.5,12.3,34.9,30.2c-4.7,18-172.4,22.6-191.4,5.7s0.5-26,9.8-32.4C189.4,219.6,161.1,215,170.4,199.5z"/>
<path class="st0" d="M52.9,270.9c13-21.3,73.9-3.8,54.7-13s3.7-26.6,35.3-26.1c31.6,0.5,106.9-10.3,116.7,15.1
	c9.8,25.5-28.3,41.8-22.9,50.5c5.4,8.7,46.4,14.1,41,34.8c-5.4,20.6-202.2,26.1-224.7,6.5s0.6-29.8,11.4-37.2S41.9,288.8,52.9,270.9
	z"/>
<g>
	<path class="st1" d="M295.7,188.8H115.8c-12,0-21.7-9.7-21.7-21.7V29.7c0-12,9.7-21.7,21.7-21.7h179.9c12,0,21.7,9.7,21.7,21.7
		v137.4C317.4,179.1,307.7,188.8,295.7,188.8z"/>
	<path class="st2" d="M318.8,22.8V35H92.7V22.8c0-8.8,7.2-15.9,16.1-15.9h193.8C311.6,6.9,318.8,14,318.8,22.8z"/>
	<path class="st3" d="M237.5,122.6h-57.2c-2.9,0-5.3-2.4-5.3-5.3v-2.2c0-2.9,2.4-5.3,5.3-5.3h57.2c2.9,0,5.3,2.4,5.3,5.3v2.2
		C242.8,120.2,240.4,122.6,237.5,122.6z"/>
	<path class="st4" d="M203.2,86.3h-64.3c-2.6,0-4.8-2.1-4.8-4.8v-2c0-2.6,2.1-4.8,4.8-4.8h64.3c2.6,0,4.8,2.1,4.8,4.8v2
		C208,84.2,205.9,86.3,203.2,86.3z"/>
	<path class="st4" d="M282.5,86.3h-64.3c-2.6,0-4.8-2.1-4.8-4.8v-2c0-2.6,2.1-4.8,4.8-4.8h64.3c2.6,0,4.8,2.1,4.8,4.8v2
		C287.2,84.2,285.1,86.3,282.5,86.3z"/>
	<rect x="137.2" y="92.6" class="st5" width="56.8" height="1.7"/>
	<rect x="226" y="92.6" class="st5" width="56.8" height="1.7"/>
	<rect x="137.2" y="97.6" class="st5" width="56.8" height="1.7"/>
	<rect x="180.6" y="130.9" class="st5" width="56.8" height="1.7"/>
	<circle class="st6" cx="281.9" cy="20.9" r="3.7"/>
	<circle class="st7" cx="293.1" cy="20.9" r="3.7"/>
</g>
<g>
	<path class="st8" d="M131.4,152c0,0,1.6-6.1-4.5-7.6c-6.2-1.5-14.9-0.6-16.6,3.8s-3.5,8.2-2.2,11.8c1.3,3.6-5.6,4.3-8.2,12.7
		c-2.6,8.4-2.3,21.2,3.6,21.5c5.9,0.3,17.9-18,20.5-21.5S131.4,152,131.4,152z"/>
	<path class="st9" d="M133,167.2c0,0,25.2-3.9,28.5-5.6c3.3-1.8,19.5-27.7,19.5-27.7l2.6,2.8c0,0-12.6,28.2-20,34.4
		s-18,12.1-18,12.1s-1.3,23.4,1.8,32.1c3.1,8.7,11.8,39.8,12.3,44.1c0,0-61.6,7.2-67.2,4.1c-5.6-3.1,11.6-34.7,13.9-42.9
		c2.3-8.2,1.8-20,1.8-20S94.8,216,91.3,222.9c-3.5,6.9-6.8,25.4-6.8,25.4l-6.2-0.3c0,0,6.2-30.8,12.1-44.9
		c5.9-14.1,17.6-27.8,27.6-31.4S133,167.2,133,167.2z"/>
	<path class="st7" d="M133,169.7c0,0-0.2,6.2,2.3,11.4c2.6,5.2,10.8,11.1,8.5,20.1c-2.3,9-2.8,12.3-0.8,20
		c2.1,7.7,2.6,15.7,2.6,15.7l-29.8-2.8c0,0,9.2-9.8,9.8-20.3s-5.1-30.8-6.3-35.7c-1.2-4.9-1.3-6.3-1.3-6.3l15-4.5L133,169.7z"/>
	<path class="st10" d="M115.8,234l29.8,2.8c0,0,1,48.3-1.3,72.6c-2.3,24.4-6.7,50.1-6.7,50.1h-4.9c0,0-1.8-56.5-2.7-64.7
		s-1.9-27-1.9-27s-2.6,22.8-10.8,42.6c-8.2,19.8-21.8,44.4-21.8,44.4l-4.4-1c0,0,14.6-51.3,14.1-61.6c-0.5-10.3,0-28.1,0-28.1
		l10.5-0.6V234z"/>
	<path class="st11" d="M118.1,168.4l-1.9-4.5c0,0-2.6,1-2.9-2.9c-0.3-3.8,1.3-5.9,2.4-4.4c3,4,3-6.9,8.6-7.8c5.6-0.9,6.8,1.7,7.2,4
		c0.4,2.3,1.9,10.4,1.2,14.6C132.1,171.7,123.6,172.4,118.1,168.4z"/>
	<path class="st11" d="M181.4,134.3c0,0,0.8-4.6,2.2-7s2.4-1.7,2.4-1.7s-1.5,1.5-1.2,2.7c0.4,1.2,3.9-3.1,3.9-4s1.9,3.1,1.2,4.8
		c-0.8,1.7-6.2,7.6-6.2,7.6L181.4,134.3z"/>
	<path class="st11" d="M82.6,247.8c0,0,2.7,3.8,3.4,6.5s-0.5,2.9-0.5,2.9s0-2.2-1.1-2.7c-1.1-0.5-0.5,4.9,0.1,5.6
		c0.7,0.7-3.5-0.8-4.2-2.6c-0.7-1.8-1-9.8-1-9.8L82.6,247.8z"/>
	<polygon class="st12" points="132.7,359.5 133,364.1 147.9,364.1 137.6,359.5 	"/>
	<path class="st12" d="M91.2,353.8l-2.1,5.6c0,0,4.1,5.1,5.1,4.6c1-0.5,7.2,0,7.2,0s-5.9-3.3-6.2-5.1c-0.3-1.8,0.3-4.1,0.3-4.1
		L91.2,353.8z"/>
	<path class="st12" d="M113.4,163.4"/>
	<polygon class="st11" points="116.3,163.9 118,171.8 122.4,170.5 119.3,163.9 	"/>
</g>
<g>
	<g>
		<path class="st11" d="M320.8,139.6c0,0-7.1,1.9-9.3,8.5s-0.4,12.6,1.2,14.2c1.5,1.6,3,1,3,1l-0.1,8.4c0,0-2.8,2.8,0.8,3.9
			c3.6,1.1,10.3-2.2,10.3-2.2l-1.6-10.8c0,0,5.5-4.3,6.5-7.4C332.3,152.1,330.6,140.9,320.8,139.6z"/>
		<path class="st13" d="M327.8,141.6c0,0-9.5-3.5-12.8-1.6c-3.4,1.8-2.7,6.3-2.7,6.3s9.3,0.1,11.8,1.4c2.5,1.3,1,7.4,1,7.4
			s3.1-7.5,4.8-5.1c1.7,2.3-0.9,5.8-1.7,5.8c-0.9,0-1,5.1-1,5.1s5.8-4.2,5.9-11C333.1,143.4,327.8,141.6,327.8,141.6z"/>
		<path class="st14" d="M299.4,243.9c0,0-1.1,45.3,0.8,68.1c1.9,22.8,4.3,45.3,4.3,45.3h6.3c0,0,3.7-67.3,4.8-82l5.8,82h6.2
			c0,0,7.6-104.2,7.1-113.9C334.2,233.6,299.4,243.9,299.4,243.9z"/>
		<path class="st15" d="M303.8,174.1c-1.1,2-4.1,16.5-4.7,39.6c-0.5,20.7-1.3,30.2-1.3,30.2l39.4-0.2l1.3-40.7c0,0,5.2,16,5.4,24.7
			c0.3,8.7-0.8,25.2-0.8,25.2l4.1,0.6c0,0,7.6-31,2.7-47.3c-4.9-16.3-10.3-37.2-14.9-39c-4.6-1.7-10.9-1.2-10.9-1.2
			s-6.5,0.4-12.1,2.2C307.1,169.7,304.4,173.2,303.8,174.1z"/>
		<path class="st16" d="M345.6,238.2"/>
		<path class="st15" d="M303.8,174.1c0,0-11.6,26.2-15.2,28.1c-2.5,1.3-18.3-12.5-18.3-12.5l-3,4.3c0,0,12.1,16.9,16.5,19.5
			c6.6,3.9,21.4-8.9,21.4-8.9L303.8,174.1z"/>
		<path class="st11" d="M315.5,167.2c0,0-0.4,3.1,2.2,3.4c2.6,0.3,8-2.5,7.7-4.7s-5-2.2-5-2.2L315.5,167.2z"/>
		<polygon class="st17" points="299.3,209.1 301.3,183.8 296.9,210.6 		"/>
		<path class="st11" d="M270.1,190.3c0,0-0.4-2.5-0.6-3.4s-1.4-2.2-1.7-2.8s-1-2.5-1.4-2.3c-0.5,0.2-0.3,1,0,2
			c0.3,1.1,0.7,1.7,0.7,1.7s-1.4,1.3-1.5,2c-0.1,0.7-0.8,2,0,3.3c0.8,1.2,2.8,1.9,2.8,1.9L270.1,190.3z"/>
		<path class="st11" d="M344.2,252.9c0,0-1.3,1.7-1.5,2.9s0,3.6,0,3.6s0.5-1.6,1.2-2.2s-0.6,4.3-0.8,4.8c-0.1,0.4,2.7-0.5,3.4-2.5
			c0.7-2,0.5-6.1,0.5-6.1L344.2,252.9z"/>
	</g>
	<path class="st18" d="M306,357.3c0,0-3,5.2-4.7,6.3h8.1v-6.3H306z"/>
	<polygon class="st18" points="322.6,357.3 321.8,363.6 328.2,363.6 326.4,357.3 	"/>
</g>
</svg>
