<?xml version="1.0" encoding="utf-8"?>
<!-- Generator: Adobe Illustrator 23.0.0, SVG Export Plug-In . SVG Version: 6.00 Build 0)  -->
<svg version="1.1" xmlns="http://www.w3.org/2000/svg" xmlns:xlink="http://www.w3.org/1999/xlink" x="0px" y="0px"
	 viewBox="0 0 434 364" style="enable-background:new 0 0 434 364;" xml:space="preserve">
<style type="text/css">
	.st0{opacity:0.27;fill:#A9EADA;enable-background:new    ;}
	.st1{fill:#F7CD00;}
	.st2{fill:#FFFFFF;}
	.st3{fill:#F93508;}
	.st4{fill:#417BAF;}
	.st5{fill:#13507A;}
	.st6{fill:#C11B00;}
	.st7{fill:#FFB41D;}
	.st8{fill:#16239B;}
	.st9{fill:#2B292C;}
	.st10{fill:#FFA300;}
	.st11{fill:#7A5443;}
	.st12{fill:#282828;}
	.st13{fill:#232322;}
	.st14{fill:#E2E2E2;}
	.st15{fill:#CE8345;}
	.st16{fill:#DFF460;}
	.st17{fill:#A5AF4A;}
	.st18{fill:#494948;}
	.st19{fill:#636362;}
	.st20{fill:#243349;}
	.st21{fill:#DD9A43;}
	.st22{fill:#3A356D;}
	.st23{fill:#E70DFF;}
</style>
<g id="Layer_1">
	<path class="st0" d="M174.2,76.4c14.7-24.6,83.6-4.4,61.8-15s4.1-30.7,39.9-30s121-11.9,132.1,17.6c11.1,29.5-32.1,48.2-25.9,58.2
		c6.2,10,52.4,16.3,46.3,40.1c-6.2,23.9-229,30-254.2,7.6s0.6-34.5,13-43C199.5,103.2,161.9,97,174.2,76.4z"/>
	<path class="st0" d="M18.2,171.3c17.3-28.3,98.2-5,72.7-17.3c-25.5-12.3,4.9-35.3,46.9-34.6c42,0.6,142-13.7,155,20.1
		c13,33.9-37.6,55.5-30.4,67.1s61.6,18.7,54.4,46.2c-7.2,27.4-268.6,34.6-298.4,8.6c-29.8-26,0.8-39.6,15.2-49.4
		C48,202.2,3.6,195.1,18.2,171.3z"/>
	<g>
		<ellipse class="st1" cx="62" cy="95.4" rx="12.8" ry="12.8"/>
		<g id="XMLID_97_">
			<path id="XMLID_12_" class="st2" d="M63,92.3l1.6-2.8l0.1-0.2l1.1,0.6l0.7-0.8l1.3,1v0.3h2l0.5,1.5l-1.8,8.6H69l-0.8,0.4
				l-0.1-0.2l-3.4-1.1l1-5.8c0,0-1.2-0.8-2.5-0.9c-0.5-0.1-0.5-0.1-0.5-0.1L63,92.3z"/>
			<path id="XMLID_75_" class="st2" d="M68.2,101.2l-0.2-0.3l-3.5-1.1l1.1-6.1c-0.3-0.2-1.3-0.4-2.3-0.7c-0.4-0.1-0.5-0.1-0.7-0.2
				l2-3.8l1.2,0.6l0.8-0.8l1.3,1.3l0.2,0.2l2.1-0.1l0.6,1.6l-1.8,8.2h0.7L68.2,101.2z M65.1,99.5l3.3,1.1l0,0l1.9-8.6l-0.4-1.1H68
				v-0.4l-1.2-0.8l-0.8,0.8l-1-0.5l0,0l-1.6,2.9c0,0,0.1,0,0.2,0c1.2,0.1,2.5,0.9,2.6,0.9l0.1,0.1L65.1,99.5z"/>
		</g>
		<path id="XMLID_91_" d="M68.2,100.9l-3.6-1.1l1.7-9.1h0.1c0.8,0,3.4-0.1,3.7,0l0,0c0.3,0.1,0.8,0.8,0.9,0.9l0,0l-1.6,8.7
			L68.2,100.9z M64.9,99.6l3.3,1l1.1-0.5l1.5-8.5c-0.2-0.3-0.6-0.8-0.7-0.8c-0.2-0.1-2.2,0-3.5,0L64.9,99.6z"/>
		<path id="XMLID_78_" d="M67,100.4c0,0,1.2,0.3,1.2-0.1c0.1-0.4,1.7-8.6,1.8-9c0.1-0.4-0.3-0.6-0.6-0.6H70l0.8,0.9l-1.5,8.6
			l-1.2,0.6L67,100.4z"/>
		<path id="XMLID_79_" d="M68.3,91.1l1.3,0.1l-0.8,4.5C68.8,95.8,68.8,92.1,68.3,91.1z"/>
		<path id="XMLID_54_" d="M66.7,96.8c0-0.1,0-0.1-0.1-0.1l-0.9-0.2L65.6,97l0,0l0.9,0.3L66.7,96.8z"/>
		<path id="XMLID_83_" d="M68.3,97.1c0-0.1,0-0.1-0.1-0.1l-0.9-0.2l-0.1,0.5l0,0l0.9,0.4L68.3,97.1z"/>
		<path id="XMLID_84_" d="M68.1,98c0-0.1,0-0.1-0.1-0.1L67,97.7l-0.1,0.5l0,0l0.9,0.3L68.1,98z"/>
		<path id="XMLID_85_" d="M68,99.1c0-0.1,0-0.1-0.1-0.1l-0.9-0.2l-0.1,0.5l0,0l0.9,0.3L68,99.1z"/>
		<path id="XMLID_86_" d="M66.4,98.6c0-0.1,0-0.1-0.1-0.1l-0.9-0.2l-0.1,0.5l0,0l0.9,0.3L66.4,98.6z"/>
		<path id="XMLID_87_" d="M66.6,97.6c0-0.1,0-0.1-0.1-0.1l-0.9-0.2l-0.1,0.5l0,0l0.9,0.3L66.6,97.6z"/>
		<path id="XMLID_88_" class="st3" d="M68.4,96.3c0,0-0.2-1.4-2.4-2.3c0,0,0.1,1.4-0.1,1.8L68.4,96.3z"/>
		<path id="XMLID_81_" class="st4" d="M68.6,95.8c0,0-0.6-2.1-5.6-3.1l1.8-2.9C64.7,89.7,68.8,90.8,68.6,95.8z"/>
		<path id="XMLID_90_" class="st4" d="M65.9,89.8c0.1,0,2.2,1.6,2.5,3.1c0,0-0.2-2.7-2-3.6L65.9,89.8z"/>
		<g id="XMLID_128_">
			<path id="XMLID_129_" class="st5" d="M56.8,94.2L56.8,94.2L56.8,94.2c0.1,0,0.1-0.1,0.1-0.1l0.7-1.3l0,0l0,0l0,0l0,0h0.3v2.4
				h-0.2v-1.5v-0.1v-0.1L57,94.7c0,0,0,0.1-0.1,0.1h-0.1h-0.1h-0.1c0,0,0,0-0.1-0.1l-0.7-1.3v0.1v0.1v1.5h-0.4v-2.4h0.3l0,0l0,0l0,0
				l0,0l0.7,1.3C56.7,94,56.7,94,56.8,94.2z"/>
			<path id="XMLID_131_" class="st5" d="M60.1,92.7V93h-0.7v2H59v-2h-0.7v-0.3H60.1z"/>
			<path id="XMLID_133_" class="st5" d="M60.5,92.7L60.5,92.7C60.5,92.8,60.6,92.8,60.5,92.7C60.6,92.8,60.6,92.8,60.5,92.7l1.3,1.6
				v-0.1v-0.1v-1.4h0.4V95h-0.2H62c0,0,0,0-0.1-0.1l-1.2-1.5v0.1v0.1V95h-0.4v-2.4H60.5L60.5,92.7z"/>
		</g>
		<g id="XMLID_98_">
			<path id="XMLID_100_" class="st6" d="M56.4,96.5L56.4,96.5C56.5,96.5,56.5,96.5,56.4,96.5C56.5,96.5,56.5,96.5,56.4,96.5l0.5-0.9
				l0,0l0,0l0,0l0,0h0.2v1.5h-0.2v-1c0,0,0,0,0-0.1c0,0,0,0,0-0.1l-0.4,0.8l0,0c0,0,0,0-0.1,0l0,0c0,0,0,0-0.1,0l0,0l-0.5-0.8
				c0,0,0,0,0,0.1c0,0,0,0,0,0.1v1h-0.2v-1.5h0.2l0,0l0,0l0,0l0,0L56.4,96.5L56.4,96.5z"/>
			<path id="XMLID_102_" class="st6" d="M57.9,96c0.1,0,0.2,0,0.2,0c0.1,0,0.1,0.1,0.2,0.1c0,0,0.1,0.1,0.1,0.2c0,0.1,0,0.1,0,0.2
				s0,0.2,0,0.2c0,0.1-0.1,0.1-0.1,0.2c0,0-0.1,0.1-0.2,0.1c-0.1,0-0.1,0-0.2,0c-0.1,0-0.2,0-0.2,0c-0.1,0-0.1-0.1-0.2-0.1
				c0,0-0.1-0.1-0.1-0.2c0-0.1,0-0.1,0-0.2s0-0.2,0-0.2c0-0.1,0.1-0.1,0.1-0.2c0,0,0.1-0.1,0.2-0.1C57.8,96,57.8,96,57.9,96z
				 M57.9,97c0.1,0,0.2,0,0.2-0.1s0.1-0.1,0.1-0.3c0-0.2,0-0.2-0.1-0.3c0-0.1-0.1-0.1-0.2-0.1c-0.1,0-0.2,0-0.2,0.1
				c0,0.1,0,0.2,0,0.3S57.7,96.7,57.9,97C57.8,96.9,57.8,97,57.9,97z"/>
			<path id="XMLID_105_" class="st6" d="M58.7,97v-1.5H59v0.6l0.1-0.1c0.1,0,0.1,0,0.2,0c0.1,0,0.1,0,0.2,0l0.1,0.1
				c0,0,0.1,0.1,0.1,0.2c0,0.1,0,0.1,0,0.2s0,0.2,0,0.2c0,0.1-0.1,0.1-0.1,0.2L59.5,97c-0.1,0-0.1,0-0.2,0h-0.1c0,0,0,0-0.1,0
				s0,0-0.1,0c-0.1,0,0,0-0.1-0.1V97l0,0l0,0L58.7,97L58.7,97z M59.2,96.3c-0.1,0-0.1,0-0.1,0L59,96.4v0.5l0.1,0.1h0.1h0.1
				c0,0,0.1,0,0.1-0.1v-0.1c0,0,0-0.1,0-0.2s0-0.1,0-0.2c0-0.1,0-0.1,0-0.1S59.3,96.3,59.2,96.3L59.2,96.3z"/>
			<path id="XMLID_108_" class="st6" d="M60.1,95.8L60.1,95.8C60.1,95.9,60.1,95.9,60.1,95.8c0,0.1,0,0.1-0.1,0.1c0,0,0,0-0.1,0
				s0,0-0.1,0s0,0,0,0l0,0c0,0,0,0,0-0.1c0,0,0,0,0-0.1c0-0.1,0,0,0-0.1l0,0c0,0,0,0,0.1,0c0,0,0,0,0.1,0c0,0,0,0,0.1,0
				C60.1,95.5,60.1,95.5,60.1,95.8C60.1,95.5,60.1,95.5,60.1,95.8z M60.1,96v1.1h-0.3V96H60.1z"/>
			<path id="XMLID_111_" class="st6" d="M60.5,95.4V97h-0.3v-1.5H60.5z"/>
			<path id="XMLID_113_" class="st6" d="M61.2,96c0.1,0,0.1,0,0.2,0c0.1,0,0.1,0.1,0.1,0.1s0.1,0.1,0.1,0.2c0,0.1,0,0.1,0,0.2l0,0
				l0,0l0,0l0,0h-0.7c0,0.1,0,0.2,0.1,0.2c0,0,0.1,0.1,0.2,0.1h0.1h0.1c0,0,0,0,0.1,0l0,0l0,0l0,0l0.1,0.1L61.6,97
				c0,0-0.1,0-0.1,0.1h-0.1h-0.1c-0.1,0-0.1,0-0.2,0c-0.1,0-0.1-0.1-0.2-0.1c0,0-0.1-0.1-0.1-0.2s0-0.2,0-0.2c0-0.1,0-0.1,0-0.2
				c0-0.1,0.1-0.1,0.1-0.2c0,0,0.1-0.1,0.2-0.1C61,96,61.1,96,61.2,96z M61.2,96.1c-0.1,0-0.1,0-0.2,0.1c0,0-0.1,0.1-0.1,0.2h0.5
				v-0.1v-0.1C61.3,96.3,61.3,96.3,61.2,96.1C61.3,96.3,61.2,96.1,61.2,96.1z"/>
			<path id="XMLID_116_" class="st6" d="M56.4,98.6L56.4,98.6C56.5,98.6,56.5,98.6,56.4,98.6C56.5,98.5,56.5,98.5,56.4,98.6l0.5-0.9
				l0,0l0,0l0,0l0,0h0.2v1.5h-0.2v-1c0,0,0,0,0-0.1c0,0,0,0,0-0.1l-0.4,0.8l0,0c0,0,0,0-0.1,0l0,0c0,0,0,0-0.1,0l0,0L55.8,98
				c0,0,0,0,0,0.1c0,0,0,0,0,0.1v1h-0.2v-1.5h0.2l0,0l0,0l0,0l0,0L56.4,98.6C56.4,98.5,56.4,98.5,56.4,98.6z"/>
			<path id="XMLID_118_" class="st6" d="M57.9,98c0.1,0,0.2,0,0.2,0c0.1,0,0.1,0.1,0.2,0.1c0,0,0.1,0.1,0.1,0.2c0,0.1,0,0.1,0,0.2
				c0,0.1,0,0.2,0,0.2c0,0.1-0.1,0.1-0.1,0.2c0,0-0.1,0.1-0.2,0.1c-0.1,0-0.1,0-0.2,0c-0.1,0-0.2,0-0.2,0c-0.1,0-0.1-0.1-0.2-0.1
				c0,0-0.1-0.1-0.1-0.2s0-0.1,0-0.2c0-0.1,0-0.2,0-0.2c0-0.1,0.1-0.1,0.1-0.2c0,0,0.1-0.1,0.2-0.1C57.8,98,57.8,98,57.9,98z
				 M57.9,99.1c0.1,0,0.2,0,0.2-0.1c0-0.1,0.1-0.1,0.1-0.3c0-0.2,0-0.2-0.1-0.3c0-0.1-0.1-0.1-0.2-0.1c-0.1,0-0.2,0-0.2,0.1
				c0,0.1-0.1,0.1-0.1,0.3c0,0.1,0,0.2,0.1,0.3C57.8,99.1,57.8,99.1,57.9,99.1z"/>
			<path id="XMLID_121_" class="st6" d="M58.7,99.2V98h0.2H59v0.1c0,0,0,0,0.1-0.1c0.1-0.1,0,0,0.1,0h0.1h0.1c0.1,0,0.1,0,0.2,0
				c0,0,0.1,0,0.1,0.1l0.1,0.1c0,0,0,0.1,0,0.2v0.7h-0.3v-0.7c0-0.1,0-0.1,0-0.1l-0.1-0.1h-0.1c0,0-0.1,0-0.1,0.1v0.8H58.7
				L58.7,99.2z"/>
			<path id="XMLID_123_" class="st6" d="M60.2,98c0.1,0,0.1,0,0.2,0c0.1,0,0.1,0.1,0.1,0.1s0.1,0.1,0.1,0.2c0,0.1,0,0.1,0,0.2l0,0
				l0,0l0,0l0,0h-0.7c0,0.1,0,0.2,0.1,0.2c0,0,0.1,0.1,0.2,0.1h0.1h0.1c0,0,0,0,0.1,0l0,0l0,0l0,0l0.1,0.1l-0.1,0.1
				c0,0-0.1,0-0.1,0.1h-0.1h-0.1c-0.1,0-0.1,0-0.2,0c-0.1,0-0.1-0.1-0.2-0.1c0,0-0.1-0.1-0.1-0.2s0-0.2,0-0.2c0-0.1,0-0.1,0-0.2
				s0.1-0.1,0.1-0.2c0,0,0.1-0.1,0.2-0.1C60.1,98,60.1,98,60.2,98z M60.2,98.3c-0.1,0-0.1,0-0.2,0.1c0,0-0.1,0.1-0.1,0.2h0.5v-0.1
				v-0.1C60.4,98.4,60.3,98.3,60.2,98.3C60.3,98.3,60.3,98.3,60.2,98.3z"/>
			<path id="XMLID_126_" class="st6" d="M61.2,99.6C61.1,99.6,61.1,99.6,61.2,99.6C61.1,99.6,61.1,99.6,61.2,99.6l-0.3,0.1l0.2-0.4
				l-0.4-1h0.2l0,0l0,0l0.2,0.5c0,0,0,0,0,0.1c0,0,0,0,0,0.1c0,0,0,0,0-0.1c0,0,0,0,0-0.1l0.2-0.5l0,0l0,0h0.2L61.2,99.6z"/>
		</g>
		<polygon id="XMLID_77_" class="st2" points="68.3,101.2 66.9,101.1 52.6,101.1 52.6,93.5 56,90.9 63.8,90.9 63.5,91.4 56.1,91.4 
			53.2,93.8 53.2,100.6 67,100.6 68.3,101 69.4,100.2 71,91.6 70,90.4 67.9,90.4 67.9,90.2 70.2,90.3 71.3,91.6 69.6,100.6 		"/>
		<path id="XMLID_76_" class="st2" d="M65.6,93.7l0.6,0.3l0.1-0.3l-1-0.4L65.6,93.7z"/>
		<path id="XMLID_99_" class="st2" d="M66.1,90.3l0.3-0.2c0,0,0.6,0.6,0.8,0.8L67,91.2C67.1,91.3,66.5,90.7,66.1,90.3z"/>
	</g>
	<g>
		<ellipse class="st1" cx="179.1" cy="73.6" rx="7" ry="7"/>
		<g id="XMLID_70_">
			<path id="XMLID_72_" class="st2" d="M179.6,71.9l0.8-1.5l0.1-0.1l0.6,0.3l0.4-0.4l0.7,0.6v0.2h1.1l0.3,0.8l-1,4.7h0.2l-0.5,0.2
				l-0.1-0.1l-1.9-0.6l0.6-3.1c0,0-0.7-0.4-1.4-0.5c-0.3-0.1-0.3-0.1-0.3-0.1L179.6,71.9z"/>
			<path id="XMLID_71_" class="st2" d="M182.5,76.7l-0.1-0.2l-1.9-0.6l0.6-3.3c-0.2-0.1-0.7-0.2-1.2-0.4c-0.2-0.1-0.3-0.1-0.4-0.1
				l1.1-2.1l0.7,0.3l0.5-0.4l0.7,0.7l0.1,0.1l1.1-0.1l0.3,0.9l-1,4.5h0.4L182.5,76.7z M180.8,75.8l1.8,0.6l0,0l1-4.7l-0.2-0.6h-1
				v-0.2l-0.7-0.4l-0.5,0.4l-0.6-0.3l0,0l-0.8,1.6c0,0,0.1,0,0.1,0c0.7,0.1,1.4,0.5,1.4,0.5l0.1,0.1L180.8,75.8z"/>
		</g>
		<path id="XMLID_69_" d="M182.5,76.5l-2-0.6l0.9-4.9h0.1c0.5,0,1.9-0.1,2,0l0,0c0.2,0.1,0.5,0.4,0.5,0.5l0,0l-0.8,4.7L182.5,76.5z
			 M180.6,75.8l1.8,0.6l0.6-0.3l0.8-4.6c-0.1-0.2-0.3-0.4-0.4-0.4c-0.1-0.1-1.2,0-1.9,0L180.6,75.8z"/>
		<path id="XMLID_68_" d="M181.8,76.3c0,0,0.7,0.2,0.7-0.1c0.1-0.2,0.9-4.7,1-4.9c0.1-0.2-0.2-0.3-0.3-0.3h0.3l0.5,0.5l-0.8,4.7
			l-0.7,0.3L181.8,76.3z"/>
		<path id="XMLID_67_" d="M182.5,71.2l0.7,0.1l-0.5,2.5C182.8,73.7,182.8,71.8,182.5,71.2z"/>
		<path id="XMLID_66_" d="M181.7,74.3C181.7,74.2,181.7,74.2,181.7,74.3l-0.6-0.2l-0.1,0.3l0,0l0.5,0.2L181.7,74.3z"/>
		<path id="XMLID_65_" d="M182.5,74.5C182.5,74.4,182.5,74.4,182.5,74.5l-0.6-0.2l-0.1,0.3l0,0l0.5,0.2L182.5,74.5z"/>
		<path id="XMLID_64_" d="M182.4,75C182.4,74.9,182.4,74.9,182.4,75l-0.6-0.2l-0.1,0.3l0,0l0.5,0.2L182.4,75z"/>
		<path id="XMLID_63_" d="M182.3,75.5C182.3,75.5,182.3,75.5,182.3,75.5l-0.6-0.2l-0.1,0.3l0,0l0.5,0.2L182.3,75.5z"/>
		<path id="XMLID_62_" d="M181.5,75.3C181.5,75.3,181.5,75.3,181.5,75.3l-0.6-0.2l-0.1,0.3l0,0l0.5,0.2L181.5,75.3z"/>
		<path id="XMLID_61_" d="M181.6,74.8C181.6,74.7,181.6,74.7,181.6,74.8l-0.6-0.2l-0.1,0.3l0,0l0.5,0.2L181.6,74.8z"/>
		<path id="XMLID_60_" class="st3" d="M182.6,74c0,0-0.1-0.8-1.3-1.2c0,0,0.1,0.8-0.1,1L182.6,74z"/>
		<path id="XMLID_59_" class="st4" d="M182.7,73.7c0,0-0.3-1.1-3-1.7l1-1.6C180.5,70.4,182.8,71,182.7,73.7z"/>
		<path id="XMLID_58_" class="st4" d="M181.2,70.5c0.1,0,1.2,0.9,1.4,1.7c0,0-0.1-1.5-1.1-2L181.2,70.5z"/>
		<g id="XMLID_53_">
			<path id="XMLID_57_" class="st5" d="M176.2,72.9L176.2,72.9L176.2,72.9C176.3,72.9,176.3,72.8,176.2,72.9l0.5-0.8l0,0l0,0l0,0
				l0,0h0.2v1.3h-0.1v-0.8v-0.1v-0.1l-0.4,0.7c0,0,0,0.1-0.1,0.1h-0.1h-0.1h-0.1c0,0,0,0-0.1-0.1l-0.4-0.7v0.1v0.1v0.8h-0.2v-1.3
				h0.2l0,0l0,0l0,0l0,0l0.4,0.7C176.2,72.8,176.2,72.8,176.2,72.9z"/>
			<path id="XMLID_56_" class="st5" d="M178.1,72.1v0.2h-0.4v1.1h-0.2v-1.1H177v-0.2H178.1z"/>
			<path id="XMLID_55_" class="st5" d="M178.3,72.1L178.3,72.1C178.3,72.1,178.3,72.1,178.3,72.1C178.3,72.1,178.3,72.1,178.3,72.1
				L179,73v-0.1v-0.1v-0.8h0.2v1.3h-0.1h-0.1c0,0,0,0-0.1-0.1l-0.7-0.8v0.1v0.1v0.8h-0.2v-1.3H178.3L178.3,72.1z"/>
		</g>
		<g id="XMLID_41_">
			<path id="XMLID_52_" class="st6" d="M176,74.1L176,74.1C176.1,74.1,176.1,74.1,176,74.1C176.1,74.1,176.1,74.1,176,74.1l0.3-0.5
				l0,0l0,0l0,0l0,0h0.1v0.8h-0.1v-0.6c0,0,0,0,0-0.1c0,0,0,0,0-0.1l-0.2,0.4l0,0c0,0,0,0-0.1,0l0,0c0,0,0,0-0.1,0l0,0l-0.3-0.4
				c0,0,0,0,0,0.1c0,0,0,0,0,0.1v0.6h-0.1v-0.8h0.1l0,0l0,0l0,0l0,0L176,74.1L176,74.1z"/>
			<path id="XMLID_51_" class="st6" d="M176.9,73.9c0.1,0,0.1,0,0.1,0c0.1,0,0.1,0.1,0.1,0.1c0,0,0.1,0.1,0.1,0.1c0,0.1,0,0.1,0,0.1
				c0,0.1,0,0.1,0,0.1c0,0.1-0.1,0.1-0.1,0.1c0,0-0.1,0.1-0.1,0.1c-0.1,0-0.1,0-0.1,0c-0.1,0-0.1,0-0.1,0c-0.1,0-0.1-0.1-0.1-0.1
				c0,0-0.1-0.1-0.1-0.1s0-0.1,0-0.1c0-0.1,0-0.1,0-0.1c0-0.1,0.1-0.1,0.1-0.1c0,0,0.1-0.1,0.1-0.1S176.8,73.9,176.9,73.9z
				 M176.9,74.4c0.1,0,0.1,0,0.1-0.1c0-0.1,0.1-0.1,0.1-0.2s0-0.1-0.1-0.2c0-0.1-0.1-0.1-0.1-0.1c-0.1,0-0.1,0-0.1,0.1
				c0,0.1,0,0.1,0,0.2S176.8,74.2,176.9,74.4C176.8,74.4,176.8,74.4,176.9,74.4z"/>
			<path id="XMLID_50_" class="st6" d="M177.3,74.4v-0.8h0.2v0.3l0.1-0.1c0.1,0,0.1,0,0.1,0c0.1,0,0.1,0,0.1,0l0.1,0.1
				c0,0,0.1,0.1,0.1,0.1c0,0.1,0,0.1,0,0.1c0,0.1,0,0.1,0,0.1c0,0.1-0.1,0.1-0.1,0.1l-0.1,0.1c-0.1,0-0.1,0-0.1,0h-0.1
				c0,0,0,0-0.1,0s0,0-0.1,0s0,0-0.1-0.1v0.1l0,0l0,0L177.3,74.4L177.3,74.4z M177.5,74C177.5,74,177.5,74,177.5,74l-0.1,0.1v0.3
				l0.1,0.1h0.1h0.1c0,0,0.1,0,0.1-0.1v-0.1c0,0,0-0.1,0-0.1s0-0.1,0-0.1c0-0.1,0-0.1,0-0.1S177.6,74,177.5,74L177.5,74z"/>
			<path id="XMLID_49_" class="st6" d="M178.1,73.7L178.1,73.7C178.1,73.8,178.1,73.8,178.1,73.7C178.1,73.8,178.1,73.8,178.1,73.7
				c-0.1,0.1-0.1,0.1-0.1,0.1s0,0-0.1,0c-0.1,0,0,0,0,0l0,0c0,0,0,0,0-0.1c0,0,0,0,0-0.1s0,0,0-0.1l0,0c0,0,0,0,0.1,0c0,0,0,0,0.1,0
				c0,0,0,0,0.1,0C178.1,73.6,178.1,73.6,178.1,73.7C178.1,73.6,178.1,73.6,178.1,73.7z M178.1,73.9v0.6h-0.2v-0.6H178.1z"/>
			<path id="XMLID_48_" class="st6" d="M178.3,73.6v0.8h-0.2v-0.8H178.3z"/>
			<path id="XMLID_47_" class="st6" d="M178.7,73.9c0.1,0,0.1,0,0.1,0s0.1,0.1,0.1,0.1s0.1,0.1,0.1,0.1c0,0.1,0,0.1,0,0.1l0,0l0,0
				l0,0l0,0h-0.4c0,0.1,0,0.1,0.1,0.1c0,0,0.1,0.1,0.1,0.1h0.1h0.1c0,0,0,0,0.1,0l0,0l0,0l0,0l0.1,0.1l-0.1,0.1c0,0-0.1,0-0.1,0.1
				h-0.1h-0.1c-0.1,0-0.1,0-0.1,0s-0.1-0.1-0.1-0.1c0,0-0.1-0.1-0.1-0.1s0-0.1,0-0.1c0-0.1,0-0.1,0-0.1s0.1-0.1,0.1-0.1
				c0,0,0.1-0.1,0.1-0.1C178.6,73.9,178.6,73.9,178.7,73.9z M178.7,73.9c-0.1,0-0.1,0-0.1,0.1c0,0-0.1,0.1-0.1,0.1h0.3V74V74
				C178.7,74,178.7,74,178.7,73.9C178.7,74,178.7,73.9,178.7,73.9z"/>
			<path id="XMLID_46_" class="st6" d="M176,75.3L176,75.3C176.1,75.3,176.1,75.3,176,75.3C176.1,75.3,176.1,75.3,176,75.3l0.3-0.5
				l0,0l0,0l0,0l0,0h0.1v0.8h-0.1v-0.6c0,0,0,0,0-0.1c0,0,0,0,0-0.1l-0.2,0.4l0,0c0,0,0,0-0.1,0l0,0c0,0,0,0-0.1,0l0,0l-0.3-0.4
				c0,0,0,0,0,0.1c0,0,0,0,0,0.1v0.6h-0.1v-0.8h0.1l0,0l0,0l0,0l0,0L176,75.3C176,75.3,176,75.3,176,75.3z"/>
			<path id="XMLID_45_" class="st6" d="M176.9,75c0.1,0,0.1,0,0.1,0c0.1,0,0.1,0.1,0.1,0.1c0,0,0.1,0.1,0.1,0.1c0,0.1,0,0.1,0,0.1
				s0,0.1,0,0.1c0,0.1-0.1,0.1-0.1,0.1c0,0-0.1,0.1-0.1,0.1c-0.1,0-0.1,0-0.1,0c-0.1,0-0.1,0-0.1,0c-0.1,0-0.1-0.1-0.1-0.1
				c0,0-0.1-0.1-0.1-0.1c0-0.1,0-0.1,0-0.1s0-0.1,0-0.1c0-0.1,0.1-0.1,0.1-0.1c0,0,0.1-0.1,0.1-0.1S176.8,75,176.9,75z M176.9,75.5
				c0.1,0,0.1,0,0.1-0.1c0-0.1,0.1-0.1,0.1-0.2s0-0.1-0.1-0.2c0-0.1-0.1-0.1-0.1-0.1c-0.1,0-0.1,0-0.1,0.1c0,0.1-0.1,0.1-0.1,0.2
				c0,0.1,0,0.1,0.1,0.2S176.8,75.5,176.9,75.5z"/>
			<path id="XMLID_44_" class="st6" d="M177.3,75.6V75h0.1h0.1V75c0,0,0,0,0.1-0.1c0.1-0.1,0,0,0.1,0h0.1h0.1c0.1,0,0.1,0,0.1,0
				c0,0,0.1,0,0.1,0.1l0.1,0.1c0,0,0,0.1,0,0.1v0.4h-0.2v-0.4c0-0.1,0-0.1,0-0.1l-0.1-0.1h-0.1c0,0-0.1,0-0.1,0.1v0.4H177.3
				L177.3,75.6z"/>
			<path id="XMLID_43_" class="st6" d="M178.1,75c0.1,0,0.1,0,0.1,0c0.1,0,0.1,0.1,0.1,0.1s0.1,0.1,0.1,0.1c0,0.1,0,0.1,0,0.1l0,0
				l0,0l0,0l0,0h-0.4c0,0.1,0,0.1,0.1,0.1c0,0,0.1,0.1,0.1,0.1h0.1h0.1c0,0,0,0,0.1,0l0,0l0,0l0,0l0.1,0.1l-0.1,0.1
				c0,0-0.1,0-0.1,0.1h-0.1h-0.1c-0.1,0-0.1,0-0.1,0s-0.1-0.1-0.1-0.1c0,0-0.1-0.1-0.1-0.1c0-0.1,0-0.1,0-0.1c0-0.1,0-0.1,0-0.1
				c0-0.1,0.1-0.1,0.1-0.1c0,0,0.1-0.1,0.1-0.1C178.1,75,178.1,75,178.1,75z M178.1,75.1c-0.1,0-0.1,0-0.1,0.1c0,0-0.1,0.1-0.1,0.1
				h0.3v-0.1v-0.1C178.2,75.2,178.2,75.1,178.1,75.1C178.2,75.1,178.2,75.1,178.1,75.1z"/>
			<path id="XMLID_42_" class="st6" d="M178.7,75.8C178.6,75.8,178.6,75.8,178.7,75.8C178.6,75.8,178.6,75.8,178.7,75.8l-0.2,0.1
				l0.1-0.2l-0.2-0.6h0.1l0,0l0,0l0.1,0.3c0,0,0,0,0,0.1c0,0,0,0,0,0.1c0,0,0,0,0-0.1c0,0,0,0,0-0.1l0.1-0.3l0,0l0,0h0.1L178.7,75.8
				z"/>
		</g>
		<polygon id="XMLID_40_" class="st2" points="182.5,76.7 181.8,76.7 174,76.7 174,72.5 175.8,71.1 180.1,71.1 179.9,71.4 
			175.9,71.4 174.3,72.7 174.3,76.4 181.8,76.4 182.5,76.6 183.1,76.2 184,71.5 183.5,70.8 182.3,70.8 182.3,70.7 183.5,70.8 
			184.1,71.5 183.2,76.4 		"/>
		<path id="XMLID_39_" class="st2" d="M181,72.6l0.3,0.2l0.1-0.2l-0.6-0.2L181,72.6z"/>
		<path id="XMLID_38_" class="st2" d="M181.3,70.8l0.2-0.1c0,0,0.3,0.3,0.5,0.4l-0.1,0.2C181.9,71.3,181.6,71,181.3,70.8z"/>
	</g>
	<g>
		<g id="Layer_2_2_">
			<ellipse class="st7" cx="83.6" cy="67.8" rx="9" ry="9"/>
		</g>
		<g>
			<g id="Layer_1_2_">
			</g>
			<g>
				<path id="XMLID_1_" class="st2" d="M87.6,66.6c0.6-2-2.2-2.8-2.2-2.8l0.5-1.8l-1-0.2l-0.4,1.6l-0.8-0.2l0.4-1.6l-1-0.3l-0.5,1.8
					l-2.1-0.5l-0.3,1c1,0.2,1.5,0.4,1.3,0.7c-0.1,0.3-1.1,4.3-1.2,4.7c-0.1,0.4-0.3,0.4-0.5,0.4c-0.2-0.1-0.8-0.2-0.8-0.2l-0.5,1.2
					l2.2,0.6L80,72.9l1,0.2l0.4-1.8l0.9,0.2L82,73.3l1,0.3l0.4-1.8c0.1,0,0.3,0.1,0.9,0.1c1.2,0.2,2.3-0.2,2.9-1.9
					c0.5-1.5-1-2.4-1-2.4S87.3,67.7,87.6,66.6z M85.3,69.4c-0.2,0.8-0.9,1.1-1.7,0.9c-0.8-0.2-1.8-0.4-1.8-0.4l0.6-2.4
					C84.7,68.2,85.4,68.7,85.3,69.4z M85.6,66.3c-0.1,0.5-0.9,0.8-1.6,0.7c-0.6-0.1-1.2-0.3-1.2-0.3l0.5-2.2c0,0,0.1,0,1,0.2
					S85.7,65.6,85.6,66.3z"/>
			</g>
		</g>
	</g>
	<g>
		<g id="Layer_2_3_">
			<ellipse class="st7" cx="255.1" cy="105.8" rx="13.8" ry="13.8"/>
		</g>
		<g>
			<g id="Layer_1_3_">
			</g>
			<g>
				<path id="XMLID_73_" class="st2" d="M261.2,103.9c1-3-3.3-4.3-3.3-4.3l0.8-2.7l-1.6-0.3l-0.6,2.5l-1.3-0.3l0.6-2.5l-1.6-0.5
					l-0.8,2.7l-3.2-0.8l-0.5,1.6c1.6,0.3,2.2,0.6,2.1,1.1c-0.2,0.5-1.8,6.7-1.9,7.3c-0.2,0.6-0.5,0.6-0.8,0.6
					c-0.3-0.2-1.3-0.3-1.3-0.3l-0.8,1.9l3.3,1l-0.8,2.7l1.6,0.3l0.6-2.7l1.4,0.3l-0.6,2.7l1.6,0.5l0.6-2.7c0.2,0,0.5,0.2,1.4,0.2
					c1.9,0.3,3.5-0.3,4.5-2.9c0.8-2.4-1.6-3.6-1.6-3.6S260.7,105.6,261.2,103.9z M257.7,108.3c-0.3,1.3-1.4,1.7-2.5,1.4
					c-1.3-0.3-2.7-0.6-2.7-0.6l1-3.6C256.7,106.4,257.8,107.2,257.7,108.3z M258.2,103.4c-0.2,0.8-1.4,1.3-2.4,1.1s-1.9-0.5-1.9-0.5
					l0.8-3.3c0,0,0.2,0,1.6,0.3S258.3,102.5,258.2,103.4z"/>
			</g>
		</g>
	</g>
</g>
<g id="Layer_2">
	<g>
		<path class="st8" d="M181.8,184.4c0,0,6.8,95.5,7.8,115.8c1,20.2,2.9,26.1,2.9,26.1h8.5c0,0,6.2-91.3,6.6-97.5
			c0.4-6.2,5-5.7,5.9,0.3c1.2,8,7.3,67.8,8.4,96.6l9.2,0.5c0,0,2.9-104,2.3-116.9c-0.5-12.8-2.6-17.5-2.6-17.5L181.8,184.4"/>
		<path class="st9" d="M193.6,326.3c0,0-2.1,5.7-1.6,8c0.4,2.3,8.4,2.1,10.1,1c1.6-1-2.3-9-2.3-9H193.6z"/>
		<path class="st9" d="M223.1,325.6c0,0-2.1,7-1.6,9.2c0.4,2.3,8.4,2.1,10.1,1c1.6-1-1.8-9.6-1.8-9.6L223.1,325.6z"/>
		<path class="st10" d="M199.2,104.4c0,0-13.2,1.4-18.1,5.9s-18.4,38.7-17,49.6c1.4,10.9,20.3-1.4,20.3-1.4s-2.6,20.9-2.8,24.5
			c-0.2,3.6,10.6,20.6,34.2,17.6c23.6-3,15-12.7,15-12.7l-1.2-19.7c0,0,15.2,1.5,14-10.3c-1.2-11.8-6-39.9-11.8-44.3
			c-5.8-4.4-15.7-9-19.6-9.3H199.2"/>
		<path class="st2" d="M212.9,140.8c0,0,0-4.9,0-6.6c0-1.6-9.1-1.8-9.7-0.5c-0.6,1.3-0.1,16,0.8,17.5c0.8,1.3,5.2,1.7,6.7,1.5
			C212.3,152.6,212.9,143.7,212.9,140.8z"/>
		<path class="st11" d="M197,85c0,0-1.3,8.9,1,16.3s6.6,10.5,11.7,8.3c5.1-2.2,8.7-8.6,8.2-14.6c-0.4-6-0.3-17.8-9.2-17.9
			S198.4,82,197,85z"/>
		<path class="st11" d="M183,146c0,0,5.9-9.4,8.5-10.1c2.6-0.7,7.1,0.8,8.7,1.4c1.5,0.5,0.5,1.6,0,1.8c-0.5,0.1-0.3,1.2-1.2,1.8
			c-1,0.6-2.6,1-3.8,1.6c-1.2,0.5-0.7,1.1-3.1,2.3S187.8,149.9,183,146z"/>
		<path class="st11" d="M212.1,140.5c0,0-8,5.3-6.6,5.7c1.4,0.4,6.2-1.5,6.6-1c0.4,0.5-8.5,2.7-7.4,4.1s4.7,3.8,8.4,3.4
			c3.7-0.4,7.7-1.2,8.8-3.8S218.8,142.9,212.1,140.5z"/>
		<path class="st12" d="M196.7,93.7c0,0,0.7-4.2,1.1-5.3c0.5-1.1,3.9,2.7,10.4,2.1s7.3-3,7.9-2.7c0.6,0.3,1.8,7.7,1.8,7.7
			s0.9-14.8-5.3-17.3s-12.2-1.3-14.1,2.5C196.6,84.4,195.8,84.7,196.7,93.7z"/>
	</g>
	<g>
		<polygon class="st13" points="114.6,204.1 109.4,332 99.2,336.5 127.1,336.5 128.9,203.9 		"/>
		<path class="st14" d="M83.1,132.5c0,0-7-9.5-8.4-10.3c-1.4-0.8-5.3-1.1-6,0c-0.7,1.1,6.3,10.3,6.3,10.3s3.4,4.2,6.2,4.3
			C84.2,136.9,85.4,135.6,83.1,132.5z"/>
		<path class="st15" d="M141.1,116.6c0,0-9.1-29-14.6-33c-5.5-4-19.1-4.5-21.6,7s4,16,9.6,18.5c5.6,2.5,8.3,0.5,8.3,0.5v12.5
			L141.1,116.6z"/>
		<path class="st16" d="M122.3,122.1l16.4-13.6c0,0,9.6,18.6,12.8,35.1s0,60,0,60s-36.5,1-40.1,0c-3.6-1-4.5-35,0-55.5
			S122.3,122.1,122.3,122.1z"/>
		<path class="st16" d="M138.1,149.6c0,0-30.8,22.1-34.5,22.3s-18.1-21.3-20-26.9l5-2.5c0,0,10.2,14.3,15.7,14.7
			c5.5,0.3,23.8-20.5,23.8-20.5L138.1,149.6z"/>
		<path class="st15" d="M87.6,143.1c0,0,0.9-4.6-1.1-7.2c-2-2.7-2.9-3.3-4.7-4.2c-1.8-0.8,2,1.5,1.9,2.8c-0.2,1.3-7.4-1.1-8.3-3
			c-1-2-0.5-1,0,2.4c0.5,3.3,4.3,8.4,6,9.2c1.7,0.8,3.3,1.5,3.3,1.5L87.6,143.1z"/>
		<polygon class="st17" points="124.4,139.3 110.9,153.9 125.3,140 		"/>
		<path class="st13" d="M120.2,93.1c0,0,0.7-4.6,3.8-2.7c2.9,1.8,2.4,5.7,1.2,6.3c-1.1,0.7,1.7,1.6,3.8,1.6s4.6-2.4,4.6-2.4
			s-2.9-10.3-6.7-13.3c-3.9-3-4.6-5.1-6.7-5.9c-2.2-0.7-14.4,2-17.1,6.5c-2.7,4.5-3.2,7.5-2.5,9c0.7,1.5,3.8,2.4,3.8,2.4
			s3.2-4.3,5.2-5.4c2-1,3,0.8,5.4,1.9c2.4,1,5.7,4.6,5.7,4.6L120.2,93.1z"/>
		<path class="st18" d="M148.5,203.7c0,0-3.4,99.7-3.8,109.7s0,23.1,0,23.1h-35.2l14.1-4.2c0,0-6.5-96.2-7.6-106.5
			s-1.3-21.8-1.3-21.8L148.5,203.7z"/>
	</g>
	<g>
		<path class="st11" d="M260.8,230.4c0,0-3.7,5.5-4.5,6.6c-0.8,1-2.7,5.1-3.3,6.2c-0.6,1,4.7-2.8,6.6-3.9c1.9-1.1,1.4,1.6,2.7,1.2
			s1.6-10,1.6-10H260.8"/>
		<path class="st11" d="M354.4,146c0,0-0.7-3.7,0-4.9s0.1-2.8,1.4-3.3s-0.2,0.8,0,1.5c0.2,0.7,4.5-2,6.1-2.7
			c1.5-0.7-0.9,5.4-1.9,6.9c-0.9,1.5-3.7,3.5-3.7,3.5L354.4,146"/>
		<path class="st14" d="M356.8,131.7c0,0-0.8,10.2-0.8,10.9c0,0.4,1.3,0.3,2.6,0.3c1.5,0,3,0.2,3-0.4c0-1.4,0.2-5.8,0.4-8.7
			c0.1-1.4,0.3-2.5-0.1-2.5c-0.6-0.1-4.6-0.2-4.8-0.2C356.7,131.1,356.8,131.7,356.8,131.7z"/>
		<polygon class="st19" points="357.1,131.9 356.3,142.1 361,142.2 361.6,131.9 		"/>
		<path class="st20" d="M305.3,132.6c0,0-9.5,8.8-20.4,30.7s-25.3,67.1-25.3,67.1h5.2c0,0,20-41.6,24.3-45.5c4.3-3.9,1-0.4,1-0.4
			s1.4,17-1.6,35.7s-11.1,38.1-11.1,38.1s16.1-0.2,18.2-3.1c2.1-2.9,21.9-104.6,17.4-114.8C308.3,130.4,305.3,132.6,305.3,132.6
			L305.3,132.6"/>
		<path class="st20" d="M316.9,136.6c0,0,9.8,12.3,12.1,16.8c2.2,4.5,6.1,19.5,8.4,18.2s13.4-24.5,15.9-26.3l4.3,2.3
			c0,0-8.9,30.9-13.4,35.8s-11.5,1.6-11.5,1.6l13.4,68.7c0,0-62.6,6.6-68.8,4.5c0,0,11.5-23.4,12.8-30.6c1.2-7.2,5-57.8,6.6-63
			C298.2,159.7,316.9,136.6,316.9,136.6L316.9,136.6"/>
		<path class="st21" d="M326.4,205.8c0,0,19.8,83.9,23.1,99.7s3.9,20.5,3.9,20.5s8.9,2.1,9.5,2.3c0.6,0.2-15,4.1-15,4.1l-33-100.7
			c0,0-24.1,59.5-33.2,70.5c-9.1,11.1-19.8,24.8-19.8,24.8l3.3,8.9l-10.1-10.4c0,0,23.3-48.4,27.4-59.3s22.9-60.5,22.9-60.5H326.4"
			/>
		<path class="st11" d="M325.6,106c0,0,1.6,5.1,0,14.1c-1.6,9-4.3,8.8-8.4,9.4s-13.6-0.6-12.2-6.2
			C306.5,117.9,311.6,104.1,325.6,106z"/>
		<path class="st22" d="M309,128.8c-1.2,0-19.4,4.9-19-9.8c0.4-14.8,2.7-15.8,5.9-21.4c3.2-5.6,10.2-7.4,13.1-7.6s4.1-2.3,9.9,0
			s5.8,5.4,8.2,7.6s6.6,0,6.6,4.8s-0.4,3.5-7,6s-8.2,4.5-11.5,8.2c-3.3,3.7-5.4,1.6-5.8,7C309,128.8,309,128.8,309,128.8z"/>
		<path class="st23" d="M315.6,129.6c0,0,0.1,7.8,4.9,13.7c4.7,5.9,9.1,26.2,8.4,40.4s-1.6,22.1-1.6,22.1h-21c0,0,7.8-63.8,5.6-66.8
			s-6.9-4.5-6.9-4.5l1.6-7.2L315.6,129.6z"/>
	</g>
	<g>
		<ellipse class="st1" cx="343.7" cy="129.1" rx="8.8" ry="8.8"/>
		<g id="XMLID_137_">
			<path id="XMLID_139_" class="st2" d="M344.4,127l1.1-1.9l0.1-0.1l0.8,0.4l0.5-0.6l0.9,0.7v0.2h1.4l0.4,1.1l-1.2,5.9h0.3l-0.6,0.3
				l-0.1-0.1l-2.3-0.8l0.7-4c0,0-0.9-0.6-1.7-0.6c-0.4-0.1-0.4-0.1-0.4-0.1L344.4,127z"/>
			<path id="XMLID_138_" class="st2" d="M347.9,133.1l-0.1-0.2l-2.4-0.8l0.8-4.2c-0.2-0.1-0.9-0.3-1.6-0.5c-0.3-0.1-0.4-0.1-0.5-0.1
				l1.4-2.6l0.9,0.4l0.6-0.6l0.9,0.9l0.1,0.1l1.4-0.1l0.4,1.1l-1.2,5.7h0.5L347.9,133.1z M345.8,131.8l2.3,0.8l0,0l1.3-5.9l-0.3-0.8
				h-1.3v-0.3l-0.9-0.6l-0.6,0.6l-0.7-0.4l0,0l-1.1,2c0,0,0.1,0,0.1,0c0.9,0.1,1.7,0.6,1.8,0.6l0.1,0.1L345.8,131.8z"/>
		</g>
		<path id="XMLID_136_" d="M347.9,132.8l-2.5-0.8l1.1-6.2h0.1c0.6,0,2.3-0.1,2.6,0l0,0c0.2,0.1,0.6,0.6,0.6,0.6l0,0l-1.1,5.9
			L347.9,132.8z M345.7,131.9l2.3,0.7l0.8-0.4l1-5.8c-0.1-0.2-0.4-0.6-0.5-0.6c-0.1-0.1-1.5,0-2.4,0L345.7,131.9z"/>
		<path id="XMLID_135_" d="M347.1,132.5c0,0,0.9,0.2,0.9-0.1c0.1-0.3,1.1-5.9,1.2-6.2c0.1-0.3-0.2-0.4-0.4-0.4h0.4l0.6,0.6l-1,5.9
			l-0.9,0.4L347.1,132.5z"/>
		<path id="XMLID_134_" d="M348,126.1l0.9,0.1l-0.6,3.1C348.4,129.3,348.4,126.8,348,126.1z"/>
		<path id="XMLID_132_" d="M346.9,130C346.9,129.9,346.9,129.9,346.9,130l-0.7-0.2l-0.1,0.4l0,0l0.6,0.2L346.9,130z"/>
		<path id="XMLID_130_" d="M348,130.2C348,130.1,348,130.1,348,130.2l-0.7-0.2l-0.1,0.4l0,0l0.6,0.3L348,130.2z"/>
		<path id="XMLID_127_" d="M347.9,130.9C347.9,130.8,347.9,130.8,347.9,130.9l-0.7-0.2l-0.1,0.4l0,0l0.6,0.2L347.9,130.9z"/>
		<path id="XMLID_125_" d="M347.8,131.6C347.8,131.5,347.8,131.5,347.8,131.6l-0.7-0.2l-0.1,0.4l0,0l0.6,0.2L347.8,131.6z"/>
		<path id="XMLID_124_" d="M346.7,131.3C346.7,131.2,346.7,131.2,346.7,131.3l-0.7-0.2l-0.1,0.4l0,0l0.6,0.2L346.7,131.3z"/>
		<path id="XMLID_122_" d="M346.9,130.6C346.9,130.5,346.9,130.5,346.9,130.6l-0.7-0.2l-0.1,0.4l0,0l0.6,0.2L346.9,130.6z"/>
		<path id="XMLID_120_" class="st3" d="M348.1,129.7c0,0-0.1-1-1.6-1.6c0,0,0.1,1-0.1,1.2L348.1,129.7z"/>
		<path id="XMLID_119_" class="st4" d="M348.2,129.3c0,0-0.4-1.4-3.8-2.1l1.2-2C345.5,125.1,348.4,125.9,348.2,129.3z"/>
		<path id="XMLID_117_" class="st4" d="M346.4,125.2c0.1,0,1.5,1.1,1.7,2.1c0,0-0.1-1.8-1.4-2.5L346.4,125.2z"/>
		<g id="XMLID_110_">
			<path id="XMLID_115_" class="st5" d="M340.1,128.2L340.1,128.2L340.1,128.2C340.2,128.2,340.2,128.2,340.1,128.2l0.6-1l0,0l0,0
				l0,0l0,0h0.2v1.6h-0.1v-1.1v-0.1v-0.1l-0.5,0.9c0,0,0,0.1-0.1,0.1h-0.1H340H340c0,0,0,0-0.1-0.1l-0.5-0.9v0.1v0.1v1.1h-0.3v-1.6
				h0.2l0,0l0,0l0,0l0,0l0.5,0.9C340,128.1,340,128.1,340.1,128.2z"/>
			<path id="XMLID_114_" class="st5" d="M342.4,127.2v0.2h-0.5v1.3h-0.3v-1.3h-0.5v-0.2H342.4z"/>
			<path id="XMLID_112_" class="st5" d="M342.7,127.2L342.7,127.2C342.7,127.2,342.7,127.2,342.7,127.2
				C342.7,127.2,342.7,127.2,342.7,127.2l0.9,1.1v-0.1v-0.1v-1h0.3v1.6h-0.1h-0.1c0,0,0,0-0.1-0.1l-0.9-1.1v0.1v0.1v1h-0.3v-1.6
				H342.7L342.7,127.2z"/>
		</g>
		<g id="XMLID_89_">
			<path id="XMLID_109_" class="st6" d="M339.8,129.8L339.8,129.8C339.9,129.8,339.9,129.8,339.8,129.8
				C339.9,129.8,339.9,129.8,339.8,129.8l0.4-0.6l0,0l0,0l0,0l0,0h0.1v1.1h-0.1v-0.7c0,0,0,0,0-0.1c0,0,0,0,0-0.1l-0.3,0.6l0,0
				c0,0,0,0-0.1,0l0,0c0,0,0,0-0.1,0l0,0l-0.4-0.6c0,0,0,0,0,0.1c0,0,0,0,0,0.1v0.7h-0.1v-1.1h0.1l0,0l0,0l0,0l0,0L339.8,129.8
				L339.8,129.8z"/>
			<path id="XMLID_107_" class="st6" d="M340.9,129.4c0.1,0,0.1,0,0.1,0c0.1,0,0.1,0.1,0.1,0.1c0,0,0.1,0.1,0.1,0.1
				c0,0.1,0,0.1,0,0.1c0,0.1,0,0.1,0,0.1c0,0.1-0.1,0.1-0.1,0.1c0,0-0.1,0.1-0.1,0.1c-0.1,0-0.1,0-0.1,0c-0.1,0-0.1,0-0.1,0
				c-0.1,0-0.1-0.1-0.1-0.1c0,0-0.1-0.1-0.1-0.1c0-0.1,0-0.1,0-0.1c0-0.1,0-0.1,0-0.1c0-0.1,0.1-0.1,0.1-0.1c0,0,0.1-0.1,0.1-0.1
				C340.8,129.4,340.8,129.4,340.9,129.4z M340.9,130.1c0.1,0,0.1,0,0.1-0.1c0-0.1,0.1-0.1,0.1-0.2c0-0.1,0-0.1-0.1-0.2
				c0-0.1-0.1-0.1-0.1-0.1c-0.1,0-0.1,0-0.1,0.1c0,0.1,0,0.1,0,0.2C340.7,129.9,340.7,129.9,340.9,130.1
				C340.8,130.1,340.8,130.1,340.9,130.1z"/>
			<path id="XMLID_106_" class="st6" d="M341.4,130.1v-1.1h0.2v0.4l0.1-0.1c0.1,0,0.1,0,0.1,0s0.1,0,0.1,0l0.1,0.1
				c0,0,0.1,0.1,0.1,0.1c0,0.1,0,0.1,0,0.1c0,0.1,0,0.1,0,0.1c0,0.1-0.1,0.1-0.1,0.1l-0.1,0.1c-0.1,0-0.1,0-0.1,0h-0.1
				c0,0,0,0-0.1,0s0,0-0.1,0c-0.1,0,0,0-0.1-0.1v0.1l0,0l0,0L341.4,130.1L341.4,130.1z M341.7,129.7
				C341.7,129.7,341.7,129.7,341.7,129.7l-0.1,0.1v0.4l0.1,0.1h0.1h0.1c0,0,0.1,0,0.1-0.1V130c0,0,0-0.1,0-0.1c0-0.1,0-0.1,0-0.1
				c0-0.1,0-0.1,0-0.1S341.8,129.7,341.7,129.7L341.7,129.7z"/>
			<path id="XMLID_104_" class="st6" d="M342.4,129.3L342.4,129.3C342.4,129.4,342.4,129.4,342.4,129.3
				C342.4,129.4,342.4,129.4,342.4,129.3c-0.1,0.1-0.1,0.1-0.1,0.1c-0.1,0,0,0-0.1,0c-0.1,0,0,0,0,0l0,0c0,0,0,0,0-0.1
				c0,0,0,0,0-0.1c0-0.1,0,0,0-0.1l0,0c0,0,0,0,0.1,0c0,0,0,0,0.1,0c0,0,0,0,0.1,0C342.4,129.2,342.4,129.2,342.4,129.3
				C342.4,129.2,342.4,129.2,342.4,129.3z M342.4,129.4v0.8h-0.2v-0.8H342.4z"/>
			<path id="XMLID_103_" class="st6" d="M342.7,129.1v1.1h-0.2v-1.1H342.7z"/>
			<path id="XMLID_101_" class="st6" d="M343.2,129.4c0.1,0,0.1,0,0.1,0c0.1,0,0.1,0.1,0.1,0.1s0.1,0.1,0.1,0.1c0,0.1,0,0.1,0,0.1
				l0,0l0,0l0,0l0,0h-0.5c0,0.1,0,0.1,0.1,0.1c0,0,0.1,0.1,0.1,0.1h0.1h0.1c0,0,0,0,0.1,0l0,0l0,0l0,0l0.1,0.1l-0.1,0.1
				c0,0-0.1,0-0.1,0.1h-0.1h-0.1c-0.1,0-0.1,0-0.1,0c-0.1,0-0.1-0.1-0.1-0.1c0,0-0.1-0.1-0.1-0.1s0-0.1,0-0.1c0-0.1,0-0.1,0-0.1
				c0-0.1,0.1-0.1,0.1-0.1c0,0,0.1-0.1,0.1-0.1C343,129.4,343.1,129.4,343.2,129.4z M343.2,129.5c-0.1,0-0.1,0-0.1,0.1
				c0,0-0.1,0.1-0.1,0.1h0.4v-0.1v-0.1C343.2,129.7,343.2,129.7,343.2,129.5C343.2,129.7,343.2,129.5,343.2,129.5z"/>
			<path id="XMLID_96_" class="st6" d="M339.8,131.3L339.8,131.3C339.9,131.3,339.9,131.3,339.8,131.3
				C339.9,131.2,339.9,131.2,339.8,131.3l0.4-0.6l0,0l0,0l0,0l0,0h0.1v1.1h-0.1V131c0,0,0,0,0-0.1c0,0,0,0,0-0.1l-0.3,0.6l0,0
				c0,0,0,0-0.1,0l0,0c0,0,0,0-0.1,0l0,0l-0.4-0.6c0,0,0,0,0,0.1c0,0,0,0,0,0.1v0.7h-0.1v-1.1h0.1l0,0l0,0l0,0l0,0L339.8,131.3
				C339.8,131.2,339.8,131.2,339.8,131.3z"/>
			<path id="XMLID_95_" class="st6" d="M340.9,130.9c0.1,0,0.1,0,0.1,0c0.1,0,0.1,0.1,0.1,0.1c0,0,0.1,0.1,0.1,0.1
				c0,0.1,0,0.1,0,0.1c0,0.1,0,0.1,0,0.1c0,0.1-0.1,0.1-0.1,0.1c0,0-0.1,0.1-0.1,0.1c-0.1,0-0.1,0-0.1,0c-0.1,0-0.1,0-0.1,0
				c-0.1,0-0.1-0.1-0.1-0.1c0,0-0.1-0.1-0.1-0.1c0-0.1,0-0.1,0-0.1c0-0.1,0-0.1,0-0.1c0-0.1,0.1-0.1,0.1-0.1c0,0,0.1-0.1,0.1-0.1
				C340.8,130.9,340.8,130.9,340.9,130.9z M340.9,131.6c0.1,0,0.1,0,0.1-0.1c0-0.1,0.1-0.1,0.1-0.2s0-0.1-0.1-0.2
				c0-0.1-0.1-0.1-0.1-0.1c-0.1,0-0.1,0-0.1,0.1c0,0.1-0.1,0.1-0.1,0.2c0,0.1,0,0.1,0.1,0.2C340.8,131.6,340.8,131.6,340.9,131.6z"
				/>
			<path id="XMLID_94_" class="st6" d="M341.4,131.6v-0.8h0.1h0.1v0.1c0,0,0,0,0.1-0.1c0.1-0.1,0,0,0.1,0h0.1h0.1c0.1,0,0.1,0,0.1,0
				c0,0,0.1,0,0.1,0.1l0.1,0.1c0,0,0,0.1,0,0.1v0.5H342v-0.5c0-0.1,0-0.1,0-0.1l-0.1-0.1h-0.1c0,0-0.1,0-0.1,0.1v0.6H341.4
				L341.4,131.6z"/>
			<path id="XMLID_93_" class="st6" d="M342.5,130.9c0.1,0,0.1,0,0.1,0c0.1,0,0.1,0.1,0.1,0.1s0.1,0.1,0.1,0.1c0,0.1,0,0.1,0,0.1
				l0,0l0,0l0,0l0,0h-0.5c0,0.1,0,0.1,0.1,0.1c0,0,0.1,0.1,0.1,0.1h0.1h0.1c0,0,0,0,0.1,0l0,0l0,0l0,0l0.1,0.1l-0.1,0.1
				c0,0-0.1,0-0.1,0.1h-0.1h-0.1c-0.1,0-0.1,0-0.1,0c-0.1,0-0.1-0.1-0.1-0.1c0,0-0.1-0.1-0.1-0.1c0-0.1,0-0.1,0-0.1
				c0-0.1,0-0.1,0-0.1c0-0.1,0.1-0.1,0.1-0.1c0,0,0.1-0.1,0.1-0.1C342.4,130.9,342.4,130.9,342.5,130.9z M342.5,131.1
				c-0.1,0-0.1,0-0.1,0.1c0,0-0.1,0.1-0.1,0.1h0.4v-0.1v-0.1C342.6,131.1,342.5,131.1,342.5,131.1
				C342.5,131.1,342.5,131.1,342.5,131.1z"/>
			<path id="XMLID_92_" class="st6" d="M343.2,131.9C343.1,131.9,343.1,131.9,343.2,131.9C343.1,131.9,343.1,131.9,343.2,131.9
				l-0.2,0.1l0.1-0.3l-0.3-0.7h0.1l0,0l0,0l0.1,0.4c0,0,0,0,0,0.1c0,0,0,0,0,0.1c0,0,0,0,0-0.1c0,0,0,0,0-0.1l0.1-0.4l0,0l0,0h0.1
				L343.2,131.9z"/>
		</g>
		<polygon id="XMLID_82_" class="st2" points="348,133.1 347.1,133 337.3,133 337.3,127.7 339.5,126 344.9,126 344.7,126.3 
			339.6,126.3 337.6,128 337.6,132.6 347.1,132.6 348,132.9 348.8,132.3 349.8,126.5 349.2,125.6 347.7,125.6 347.7,125.5 
			349.3,125.5 350.1,126.5 348.9,132.6 		"/>
		<path id="XMLID_80_" class="st2" d="M346.1,127.9l0.4,0.2l0.1-0.2l-0.7-0.3L346.1,127.9z"/>
		<path id="XMLID_74_" class="st2" d="M346.5,125.5l0.2-0.1c0,0,0.4,0.4,0.6,0.6l-0.1,0.2C347.2,126.3,346.8,125.8,346.5,125.5z"/>
	</g>
	<g>
		<ellipse class="st1" cx="261.3" cy="65.7" rx="15.9" ry="15.8"/>
		<g id="XMLID_173_">
			<path id="XMLID_175_" class="st2" d="M262.6,61.9l1.9-3.4l0.1-0.3l1.4,0.8l0.9-1l1.7,1.3v0.4h2.4l0.6,1.9l-2.2,10.6h0.5l-1,0.5
				l-0.1-0.3l-4.2-1.4l1.3-7.1c0,0-1.5-1-3.1-1.1c-0.6-0.1-0.6-0.1-0.6-0.1L262.6,61.9z"/>
			<path id="XMLID_174_" class="st2" d="M269,72.9l-0.3-0.4l-4.4-1.4l1.4-7.5c-0.4-0.3-1.7-0.5-2.8-0.9c-0.5-0.1-0.6-0.1-0.9-0.3
				l2.4-4.7l1.5,0.8l1-1l1.7,1.7l0.3,0.3l2.6-0.1l0.8,2l-2.2,10.2h0.9L269,72.9z M265.2,70.7l4.1,1.4l0,0l2.3-10.6l-0.5-1.4h-2.3
				v-0.5l-1.5-1l-1,1l-1.3-0.6l0,0l-1.9,3.6c0,0,0.1,0,0.3,0c1.5,0.1,3.1,1.1,3.2,1.1l0.1,0.1L265.2,70.7z"/>
		</g>
		<path id="XMLID_172_" d="M269,72.5l-4.5-1.4l2.1-11.2h0.1c1,0,4.2-0.1,4.6,0l0,0c0.4,0.1,1,1,1.2,1.1l0,0l-1.9,10.7L269,72.5z
			 M264.9,70.9l4.1,1.3l1.4-0.6l1.8-10.5c-0.3-0.4-0.8-1-0.9-1c-0.3-0.1-2.7,0-4.4,0L264.9,70.9z"/>
		<path id="XMLID_171_" d="M267.6,71.9c0,0,1.5,0.4,1.5-0.1c0.1-0.5,2.1-10.6,2.2-11.1s-0.4-0.8-0.8-0.8h0.8l1,1.1l-1.8,10.6
			l-1.5,0.8L267.6,71.9z"/>
		<path id="XMLID_170_" d="M269.2,60.4l1.7,0.1l-1,5.6C269.8,66.1,269.8,61.7,269.2,60.4z"/>
		<path id="XMLID_169_" d="M267.2,67.4c0-0.1,0-0.1-0.1-0.1l-1.2-0.3l-0.1,0.6l0,0L267,68L267.2,67.4z"/>
		<path id="XMLID_168_" d="M269.2,67.8c0-0.1,0-0.1-0.1-0.1l-1.2-0.3l-0.1,0.6l0,0l1.2,0.5L269.2,67.8z"/>
		<path id="XMLID_167_" d="M268.9,68.9c0-0.1,0-0.1-0.1-0.1l-1.2-0.3l-0.1,0.6l0,0l1.2,0.4L268.9,68.9z"/>
		<path id="XMLID_166_" d="M268.8,70.2c0-0.1,0-0.1-0.1-0.1l-1.2-0.3l-0.1,0.6l0,0l1.2,0.4L268.8,70.2z"/>
		<path id="XMLID_165_" d="M266.8,69.7c0-0.1,0-0.1-0.1-0.1l-1.2-0.3l-0.1,0.6l0,0l1.2,0.4L266.8,69.7z"/>
		<path id="XMLID_164_" d="M267.1,68.4c0-0.1,0-0.1-0.1-0.1l-1.2-0.3l-0.1,0.6l0,0l1.2,0.4L267.1,68.4z"/>
		<path id="XMLID_163_" class="st3" d="M269.3,66.8c0,0-0.3-1.8-2.9-2.8c0,0,0.1,1.8-0.1,2.2L269.3,66.8z"/>
		<path id="XMLID_162_" class="st4" d="M269.5,66.1c0,0-0.8-2.6-6.9-3.8l2.2-3.6C264.7,58.6,269.8,60,269.5,66.1z"/>
		<path id="XMLID_161_" class="st4" d="M266.2,58.7c0.1,0,2.7,2,3.1,3.8c0,0-0.3-3.3-2.4-4.5L266.2,58.7z"/>
		<g id="XMLID_157_">
			<path id="XMLID_160_" class="st5" d="M254.9,64.2L254.9,64.2L254.9,64.2c0.1,0,0.1-0.1,0.1-0.1l0.9-1.7l0,0l0,0l0,0l0,0h0.4v2.9
				h-0.3v-1.9v-0.1v-0.1l-0.9,1.7c0,0,0,0.1-0.1,0.1h-0.1h-0.1h-0.1c0,0,0,0-0.1-0.1l-0.9-1.7v0.1v0.1v1.9h-0.5v-2.9h0.4l0,0l0,0
				l0,0l0,0l0.9,1.7C254.8,64,254.8,64,254.9,64.2z"/>
			<path id="XMLID_159_" class="st5" d="M259,62.3v0.4h-0.9v2.4h-0.5v-2.4h-0.9v-0.4H259z"/>
			<path id="XMLID_158_" class="st5" d="M259.5,62.3L259.5,62.3C259.5,62.4,259.7,62.4,259.5,62.3C259.7,62.4,259.7,62.4,259.5,62.3
				l1.7,2v-0.1v-0.1v-1.8h0.5v2.9h-0.3h-0.1c0,0,0,0-0.1-0.1l-1.5-1.9v0.1v0.1v1.8h-0.5v-2.9H259.5L259.5,62.3z"/>
		</g>
		<g id="XMLID_145_">
			<path id="XMLID_156_" class="st6" d="M254.4,67L254.4,67C254.5,67,254.5,67,254.4,67C254.5,67,254.5,67,254.4,67l0.6-1.1l0,0l0,0
				l0,0l0,0h0.3v1.9H255v-1.3c0,0,0,0,0-0.1c0,0,0,0,0-0.1l-0.5,1l0,0c0,0,0,0-0.1,0l0,0c0,0,0,0-0.1,0l0,0l-0.6-1c0,0,0,0,0,0.1
				c0,0,0,0,0,0.1v1.3h-0.3v-1.9h0.3l0,0l0,0l0,0l0,0L254.4,67L254.4,67z"/>
			<path id="XMLID_155_" class="st6" d="M256.3,66.4c0.1,0,0.3,0,0.3,0c0.1,0,0.1,0.1,0.3,0.1c0,0,0.1,0.1,0.1,0.3s0,0.1,0,0.3
				c0,0.1,0,0.3,0,0.3c0,0.1-0.1,0.1-0.1,0.3c0,0-0.1,0.1-0.3,0.1s-0.1,0-0.3,0c-0.1,0-0.3,0-0.3,0c-0.1,0-0.1-0.1-0.3-0.1
				c0,0-0.1-0.1-0.1-0.3c0-0.1,0-0.1,0-0.3c0-0.1,0-0.3,0-0.3c0-0.1,0.1-0.1,0.1-0.3c0,0,0.1-0.1,0.3-0.1
				C256.2,66.4,256.2,66.4,256.3,66.4z M256.3,67.7c0.1,0,0.3,0,0.3-0.1c0-0.1,0.1-0.1,0.1-0.4c0-0.3,0-0.3-0.1-0.4
				c0-0.1-0.1-0.1-0.3-0.1c-0.1,0-0.3,0-0.3,0.1s0,0.3,0,0.4S256.1,67.3,256.3,67.7C256.2,67.5,256.2,67.7,256.3,67.7z"/>
			<path id="XMLID_154_" class="st6" d="M257.2,67.7v-1.9h0.4v0.8l0.1-0.1c0.1,0,0.1,0,0.3,0c0.1,0,0.1,0,0.3,0l0.1,0.1
				c0,0,0.1,0.1,0.1,0.3s0,0.1,0,0.3c0,0.1,0,0.3,0,0.3c0,0.1-0.1,0.1-0.1,0.3l-0.1,0.1c-0.1,0-0.1,0-0.3,0h-0.1c0,0,0,0-0.1,0
				c-0.1,0,0,0-0.1,0c-0.1,0,0,0-0.1-0.1v0.1l0,0l0,0L257.2,67.7L257.2,67.7z M257.9,66.8c-0.1,0-0.1,0-0.1,0l-0.1,0.1v0.6l0.1,0.1
				h0.1h0.1c0,0,0.1,0,0.1-0.1v-0.1c0,0,0-0.1,0-0.3c0-0.1,0-0.1,0-0.3s0-0.1,0-0.1S258,66.8,257.9,66.8L257.9,66.8z"/>
			<path id="XMLID_153_" class="st6" d="M259,66.1L259,66.1C259,66.3,259,66.3,259,66.1c0,0.1,0,0.1-0.1,0.1c0,0,0,0-0.1,0
				c-0.1,0,0,0-0.1,0s0,0,0,0l0,0c0,0,0,0,0-0.1c0,0,0,0,0-0.1s0,0,0-0.1l0,0c0,0,0,0,0.1,0c0,0,0,0,0.1,0c0,0,0,0,0.1,0
				C259,65.9,259,65.9,259,66.1C259,65.9,259,65.9,259,66.1z M259,66.4v1.4h-0.4v-1.4H259z"/>
			<path id="XMLID_152_" class="st6" d="M259.5,65.7v1.9h-0.4v-1.9H259.5z"/>
			<path id="XMLID_151_" class="st6" d="M260.4,66.4c0.1,0,0.1,0,0.3,0c0.1,0,0.1,0.1,0.1,0.1s0.1,0.1,0.1,0.3s0,0.1,0,0.3l0,0l0,0
				l0,0l0,0H260c0,0.1,0,0.3,0.1,0.3c0,0,0.1,0.1,0.3,0.1h0.1h0.1c0,0,0,0,0.1,0l0,0l0,0l0,0l0.1,0.1l-0.1,0.1c0,0-0.1,0-0.1,0.1
				h-0.1h-0.1c-0.1,0-0.1,0-0.3,0c-0.1,0-0.1-0.1-0.3-0.1c0,0-0.1-0.1-0.1-0.3c0-0.1,0-0.3,0-0.3c0-0.1,0-0.1,0-0.3
				c0-0.1,0.1-0.1,0.1-0.3c0,0,0.1-0.1,0.3-0.1C260.2,66.4,260.3,66.4,260.4,66.4z M260.4,66.5c-0.1,0-0.1,0-0.3,0.1
				c0,0-0.1,0.1-0.1,0.3h0.6v-0.1v-0.1C260.6,66.8,260.6,66.8,260.4,66.5C260.6,66.8,260.4,66.5,260.4,66.5z"/>
			<path id="XMLID_150_" class="st6" d="M254.4,69.7L254.4,69.7C254.5,69.7,254.5,69.7,254.4,69.7C254.5,69.6,254.5,69.6,254.4,69.7
				l0.6-1.1l0,0l0,0l0,0l0,0h0.3v1.9H255v-1.3c0,0,0,0,0-0.1c0,0,0,0,0-0.1l-0.5,1l0,0c0,0,0,0-0.1,0l0,0c0,0,0,0-0.1,0l0,0l-0.6-1
				c0,0,0,0,0,0.1c0,0,0,0,0,0.1v1.3h-0.3v-1.9h0.3l0,0l0,0l0,0l0,0L254.4,69.7C254.4,69.6,254.4,69.6,254.4,69.7z"/>
			<path id="XMLID_149_" class="st6" d="M256.3,68.9c0.1,0,0.3,0,0.3,0c0.1,0,0.1,0.1,0.3,0.1c0,0,0.1,0.1,0.1,0.3
				c0,0.1,0,0.1,0,0.3c0,0.1,0,0.3,0,0.3c0,0.1-0.1,0.1-0.1,0.3c0,0-0.1,0.1-0.3,0.1s-0.1,0-0.3,0c-0.1,0-0.3,0-0.3,0
				c-0.1,0-0.1-0.1-0.3-0.1c0,0-0.1-0.1-0.1-0.3s0-0.1,0-0.3c0-0.1,0-0.3,0-0.3c0-0.1,0.1-0.1,0.1-0.3c0,0,0.1-0.1,0.3-0.1
				C256.2,68.9,256.2,68.9,256.3,68.9z M256.3,70.2c0.1,0,0.3,0,0.3-0.1s0.1-0.1,0.1-0.4c0-0.3,0-0.3-0.1-0.4c0-0.1-0.1-0.1-0.3-0.1
				c-0.1,0-0.3,0-0.3,0.1c0,0.1-0.1,0.1-0.1,0.4c0,0.1,0,0.3,0.1,0.4C256.2,70.2,256.2,70.2,256.3,70.2z"/>
			<path id="XMLID_148_" class="st6" d="M257.2,70.3v-1.4h0.3h0.1v0.1c0,0,0,0,0.1-0.1c0.1-0.1,0,0,0.1,0h0.1h0.1c0.1,0,0.1,0,0.3,0
				c0,0,0.1,0,0.1,0.1l0.1,0.1c0,0,0,0.1,0,0.3v0.9h-0.4v-0.9c0-0.1,0-0.1,0-0.1l-0.1-0.1H258c0,0-0.1,0-0.1,0.1v1H257.2L257.2,70.3
				z"/>
			<path id="XMLID_147_" class="st6" d="M259.1,68.9c0.1,0,0.1,0,0.3,0c0.1,0,0.1,0.1,0.1,0.1s0.1,0.1,0.1,0.3c0,0.1,0,0.1,0,0.3
				l0,0l0,0l0,0l0,0h-0.9c0,0.1,0,0.3,0.1,0.3c0,0,0.1,0.1,0.3,0.1h0.1h0.1c0,0,0,0,0.1,0l0,0l0,0l0,0l0.1,0.1l-0.1,0.1
				c0,0-0.1,0-0.1,0.1h-0.1h-0.1c-0.1,0-0.1,0-0.3,0c-0.1,0-0.1-0.1-0.3-0.1c0,0-0.1-0.1-0.1-0.3c0-0.1,0-0.3,0-0.3
				c0-0.1,0-0.1,0-0.3s0.1-0.1,0.1-0.3c0,0,0.1-0.1,0.3-0.1C259,68.9,259,68.9,259.1,68.9z M259.1,69.3c-0.1,0-0.1,0-0.3,0.1
				c0,0-0.1,0.1-0.1,0.3h0.6v-0.1v-0.1C259.4,69.4,259.3,69.3,259.1,69.3C259.3,69.3,259.3,69.3,259.1,69.3z"/>
			<path id="XMLID_146_" class="st6" d="M260.4,70.9C260.3,70.9,260.3,70.9,260.4,70.9C260.3,70.9,260.3,70.9,260.4,70.9L260,71
				l0.3-0.5l-0.5-1.3h0.3l0,0l0,0l0.3,0.6c0,0,0,0,0,0.1c0,0,0,0,0,0.1c0,0,0,0,0-0.1c0,0,0,0,0-0.1l0.3-0.6l0,0l0,0h0.3L260.4,70.9
				z"/>
		</g>
		<polygon id="XMLID_144_" class="st2" points="269.2,72.9 267.5,72.8 249.8,72.8 249.8,63.3 253.9,60.1 263.6,60.1 263.3,60.8 
			254,60.8 250.4,63.7 250.4,72.1 267.6,72.1 269.2,72.6 270.6,71.6 272.5,61 271.3,59.5 268.6,59.5 268.6,59.2 271.5,59.4 
			272.9,61 270.8,72.1 		"/>
		<path id="XMLID_143_" class="st2" d="M265.8,63.6l0.8,0.4l0.1-0.4l-1.3-0.5L265.8,63.6z"/>
		<path id="XMLID_142_" class="st2" d="M266.5,59.4l0.4-0.3c0,0,0.8,0.8,1,1l-0.3,0.4C267.7,60.6,267,59.9,266.5,59.4z"/>
	</g>
	<g>
		<g id="Layer_2_4_">
			<ellipse class="st7" cx="361.6" cy="110.3" rx="6.2" ry="6.2"/>
		</g>
		<g>
			<g id="Layer_1_4_">
			</g>
			<g>
				<path id="XMLID_140_" class="st2" d="M364.3,109.4c0.4-1.3-1.5-2-1.5-2l0.3-1.2l-0.7-0.1l-0.3,1.1l-0.5-0.1l0.3-1.1l-0.7-0.2
					l-0.3,1.2l-1.5-0.3l-0.2,0.7c0.7,0.1,1,0.3,0.9,0.5s-0.8,3-0.8,3.3c-0.1,0.3-0.2,0.3-0.3,0.3c-0.1-0.1-0.6-0.1-0.6-0.1l-0.3,0.8
					l1.5,0.4l-0.3,1.2l0.7,0.1l0.3-1.2l0.6,0.1l-0.3,1.2l0.7,0.2l0.3-1.2c0.1,0,0.2,0.1,0.6,0.1c0.8,0.1,1.6-0.1,2-1.2
					c0.3-1-0.7-1.6-0.7-1.6S364.1,110.2,364.3,109.4z M362.8,111.4c-0.1,0.6-0.6,0.8-1.1,0.6c-0.6-0.1-1.2-0.3-1.2-0.3l0.4-1.6
					C362.4,110.6,362.9,110.9,362.8,111.4z M363,109.2c-0.1,0.3-0.6,0.6-1,0.5c-0.4-0.1-0.8-0.2-0.8-0.2l0.3-1.4c0,0,0.1,0,0.7,0.1
					C362.8,108.3,363.1,108.8,363,109.2z"/>
			</g>
		</g>
	</g>
	<g>
		<g id="Layer_2_5_">
			<ellipse class="st7" cx="286.5" cy="75.9" rx="6.2" ry="6.2"/>
		</g>
		<g>
			<g id="Layer_1_5_">
			</g>
			<g>
				<path id="XMLID_141_" class="st2" d="M289.2,75.1c0.4-1.3-1.5-2-1.5-2l0.3-1.2l-0.7-0.1l-0.3,1.1l-0.5-0.1l0.3-1.1l-0.7-0.2
					l-0.3,1.2l-1.5-0.3l-0.2,0.7c0.7,0.1,1,0.3,0.9,0.5s-0.8,3-0.8,3.3c-0.1,0.3-0.2,0.3-0.3,0.3c-0.1-0.1-0.6-0.1-0.6-0.1l-0.3,0.8
					l1.5,0.4l-0.3,1.2l0.7,0.1l0.3-1.2l0.6,0.1l-0.3,1.2l0.7,0.2l0.3-1.2c0.1,0,0.2,0.1,0.6,0.1c0.8,0.1,1.6-0.1,2-1.2
					c0.3-1-0.7-1.6-0.7-1.6S289,75.8,289.2,75.1z M287.7,77c-0.1,0.6-0.6,0.8-1.1,0.6c-0.6-0.1-1.2-0.3-1.2-0.3l0.4-1.6
					C287.3,76.2,287.8,76.5,287.7,77z M287.9,74.8c-0.1,0.3-0.6,0.6-1,0.5c-0.4-0.1-0.8-0.2-0.8-0.2l0.3-1.4c0,0,0.1,0,0.7,0.1
					C287.7,73.9,288,74.4,287.9,74.8z"/>
			</g>
		</g>
	</g>
</g>
</svg>
