<?xml version="1.0" encoding="utf-8"?>
<!-- Generator: Adobe Illustrator 23.0.0, SVG Export Plug-In . SVG Version: 6.00 Build 0)  -->
<svg version="1.1" id="Layer_1" xmlns="http://www.w3.org/2000/svg" xmlns:xlink="http://www.w3.org/1999/xlink" x="0px" y="0px"
	 viewBox="0 0 434 364" style="enable-background:new 0 0 434 364;" xml:space="preserve">
<style type="text/css">
	.st0{opacity:0.27;fill:#A9EADA;enable-background:new    ;}
	.st1{fill:#232322;}
	.st2{fill:#E2E2E2;}
	.st3{fill:#CE8345;}
	.st4{fill:#DFF460;}
	.st5{fill:#A5AF4A;}
	.st6{fill:#494948;}
	.st7{fill:#F7CD00;}
	.st8{fill:#FFFFFF;}
	.st9{fill:#F93508;}
	.st10{fill:#417BAF;}
	.st11{fill:#13507A;}
	.st12{fill:#C11B00;}
	.st13{fill:#FFB41D;}
</style>
<path class="st0" d="M204.7,99c11.4-19.2,64.9-3.4,48-11.7s3.2-23.9,31-23.4c27.8,0.5,93.9-9.3,102.5,13.7s-24.9,37.6-20.1,45.4
	s40.7,12.7,35.9,31.3s-177.7,23.4-197.3,5.9s0.5-26.9,10.1-33.5C224.3,119.9,195.1,115.1,204.7,99z"/>
<path class="st0" d="M83.6,173c13.4-22.1,76.2-3.9,56.4-13.5s3.8-27.5,36.4-27s110.2-10.7,120.3,15.7s-29.2,43.3-23.6,52.3
	s47.8,14.6,42.2,36s-208.5,27-231.6,6.7s0.6-30.9,11.8-38.5S72.3,191.6,83.6,173z"/>
<polygon class="st1" points="233.8,189.5 227.5,346.7 215,352.2 249.1,352.2 251.4,189.3 "/>
<path class="st2" d="M195.4,101.5c0,0-8.5-11.7-10.3-12.7c-1.7-1-6.5-1.4-7.3,0s7.7,12.7,7.7,12.7s4.1,5.1,7.6,5.3
	C196.7,107,198.2,105.3,195.4,101.5z"/>
<path class="st3" d="M266.3,82c0,0-11.1-35.6-17.8-40.5s-23.3-5.5-26.4,8.6s4.9,19.7,11.7,22.7c6.8,3.1,10.1,0.6,10.1,0.6v15.4
	L266.3,82z"/>
<path class="st4" d="M243.3,88.8l20.1-16.7c0,0,11.7,22.8,15.6,43.1s0,73.7,0,73.7s-44.6,1.2-49,0s-5.5-43,0-68.2
	S243.3,88.8,243.3,88.8z"/>
<path class="st4" d="M262.6,122.6c0,0-37.7,27.2-42.2,27.4s-22.1-26.2-24.4-33l6.1-3.1c0,0,12.5,17.6,19.2,18s29.1-25.2,29.1-25.2
	L262.6,122.6z"/>
<path class="st3" d="M200.9,114.6c0,0,1.1-5.6-1.4-8.8c-2.5-3.3-3.5-4.1-5.7-5.1s2.5,1.8,2.3,3.5c-0.2,1.6-9-1.3-10.2-3.7
	c-1.2-2.4-0.6-1.2,0,2.9s5.2,10.3,7.3,11.3s4,1.9,4,1.9L200.9,114.6z"/>
<polygon class="st5" points="245.8,109.9 229.3,127.9 246.9,110.8 "/>
<path class="st1" d="M240.7,53.2c0,0,0.8-5.7,4.7-3.3c3.6,2.2,2.9,7,1.5,7.8c-1.3,0.8,2.1,2,4.6,2s5.6-3,5.6-3s-3.5-12.6-8.2-16.3
	c-4.8-3.7-5.6-6.3-8.2-7.2c-2.7-0.8-17.6,2.5-20.9,8s-3.9,9.2-3.1,11.1c0.8,1.8,4.7,2.9,4.7,2.9s3.9-5.3,6.4-6.6
	c2.5-1.2,3.7,1,6.6,2.3c2.9,1.2,7,5.7,7,5.7L240.7,53.2z"/>
<path class="st6" d="M275.3,189c0,0-4.1,122.5-4.6,134.8s0,28.4,0,28.4h-43.1l17.2-5.2c0,0-7.9-118.2-9.3-130.8s-1.6-26.8-1.6-26.8
	L275.3,189z"/>
<g>
	<circle class="st7" cx="192.1" cy="67.8" r="12.4"/>
	<g id="XMLID_97_">
		<path id="XMLID_12_" class="st8" d="M193.1,64.8l1.5-2.7l0.1-0.2l1.1,0.6l0.7-0.8l1.3,1v0.3h1.9l0.5,1.5l-1.7,8.3h0.4l-0.8,0.4
			l-0.1-0.2l-3.3-1.1l1-5.6c0,0-1.2-0.8-2.4-0.9c-0.5-0.1-0.5-0.1-0.5-0.1L193.1,64.8z"/>
		<path id="XMLID_75_" class="st8" d="M198.1,73.4l-0.2-0.3l-3.4-1.1l1.1-5.9c-0.3-0.2-1.3-0.4-2.2-0.7c-0.4-0.1-0.5-0.1-0.7-0.2
			l1.9-3.7l1.2,0.6l0.8-0.8l1.3,1.3l0.2,0.2l2-0.1l0.6,1.6l-1.7,8h0.7L198.1,73.4z M195.1,71.7l3.2,1.1l0,0l1.8-8.3l-0.4-1.1h-1.8
			v-0.4l-1.2-0.8l-0.8,0.8l-1-0.5l0,0l-1.5,2.8c0,0,0.1,0,0.2,0c1.2,0.1,2.4,0.9,2.5,0.9l0.1,0.1L195.1,71.7z"/>
	</g>
	<path id="XMLID_91_" d="M198.1,73.1l-3.5-1.1l1.6-8.8h0.1c0.8,0,3.3-0.1,3.6,0l0,0c0.3,0.1,0.8,0.8,0.9,0.9l0,0l-1.5,8.4
		L198.1,73.1z M194.9,71.8l3.2,1l1.1-0.5l1.4-8.2c-0.2-0.3-0.6-0.8-0.7-0.8c-0.2-0.1-2.1,0-3.4,0L194.9,71.8z"/>
	<path id="XMLID_78_" d="M197,72.6c0,0,1.2,0.3,1.2-0.1c0.1-0.4,1.6-8.3,1.7-8.7c0.1-0.4-0.3-0.6-0.6-0.6h0.6l0.8,0.9l-1.4,8.3
		l-1.2,0.6L197,72.6z"/>
	<path id="XMLID_79_" d="M198.2,63.6l1.3,0.1l-0.8,4.4C198.7,68.1,198.7,64.6,198.2,63.6z"/>
	<path id="XMLID_54_" d="M196.7,69.1c0-0.1,0-0.1-0.1-0.1l-0.9-0.2l-0.1,0.5l0,0l0.9,0.3L196.7,69.1z"/>
	<path id="XMLID_83_" d="M198.2,69.4c0-0.1,0-0.1-0.1-0.1l-0.9-0.2l-0.1,0.5l0,0L198,70L198.2,69.4z"/>
	<path id="XMLID_84_" d="M198,70.3c0-0.1,0-0.1-0.1-0.1l-0.9-0.2l-0.1,0.5l0,0l0.9,0.3L198,70.3z"/>
	<path id="XMLID_85_" d="M197.9,71.3c0-0.1,0-0.1-0.1-0.1l-0.9-0.2l-0.1,0.5l0,0l0.9,0.3L197.9,71.3z"/>
	<path id="XMLID_86_" d="M196.4,70.9c0-0.1,0-0.1-0.1-0.1l-0.9-0.2l-0.1,0.5l0,0l0.9,0.3L196.4,70.9z"/>
	<path id="XMLID_87_" d="M196.6,69.9c0-0.1,0-0.1-0.1-0.1l-0.9-0.2l-0.1,0.5l0,0l0.9,0.3L196.6,69.9z"/>
	<path id="XMLID_88_" class="st9" d="M198.3,68.6c0,0-0.2-1.4-2.3-2.2c0,0,0.1,1.4-0.1,1.7L198.3,68.6z"/>
	<path id="XMLID_81_" class="st10" d="M198.5,68.1c0,0-0.6-2-5.4-3l1.7-2.8C194.7,62.2,198.7,63.3,198.5,68.1z"/>
	<path id="XMLID_90_" class="st10" d="M195.9,62.3c0.1,0,2.1,1.6,2.4,3c0,0-0.2-2.6-1.9-3.5L195.9,62.3z"/>
	<g id="XMLID_128_">
		<path id="XMLID_129_" class="st11" d="M187.1,66.6L187.1,66.6C187.1,66.6,187.1,66.6,187.1,66.6c0.1,0,0.1-0.1,0.1-0.1l0.7-1.3
			l0,0l0,0l0,0l0,0h0.3v2.3H188V66v-0.1v-0.1l-0.7,1.3c0,0,0,0.1-0.1,0.1h-0.1H187h-0.1c0,0,0,0-0.1-0.1l-0.7-1.3v0.1V66v1.5h-0.4
			v-2.3h0.3l0,0l0,0l0,0l0,0l0.7,1.3C187,66.4,187,66.4,187.1,66.6z"/>
		<path id="XMLID_131_" class="st11" d="M190.3,65.1v0.3h-0.7v1.9h-0.4v-1.9h-0.7v-0.3H190.3z"/>
		<path id="XMLID_133_" class="st11" d="M190.7,65.1L190.7,65.1C190.7,65.2,190.8,65.2,190.7,65.1C190.8,65.2,190.8,65.2,190.7,65.1
			l1.3,1.6v-0.1v-0.1v-1.4h0.4v2.3h-0.2h-0.1c0,0,0,0-0.1-0.1l-1.2-1.5v0.1V66v1.4h-0.4v-2.3H190.7L190.7,65.1z"/>
	</g>
	<g id="XMLID_98_">
		<path id="XMLID_100_" class="st12" d="M186.7,68.8L186.7,68.8C186.8,68.8,186.8,68.8,186.7,68.8C186.8,68.8,186.8,68.8,186.7,68.8
			l0.5-0.9l0,0l0,0l0,0l0,0h0.2v1.5h-0.2v-1c0,0,0,0,0-0.1c0,0,0,0,0-0.1l-0.4,0.8l0,0c0,0,0,0-0.1,0l0,0c0,0,0,0-0.1,0l0,0
			l-0.5-0.8c0,0,0,0,0,0.1c0,0,0,0,0,0.1v1h-0.2v-1.5h0.2l0,0l0,0l0,0l0,0L186.7,68.8C186.7,68.8,186.7,68.8,186.7,68.8z"/>
		<path id="XMLID_102_" class="st12" d="M188.2,68.3c0.1,0,0.2,0,0.2,0c0.1,0,0.1,0.1,0.2,0.1c0,0,0.1,0.1,0.1,0.2s0,0.1,0,0.2
			s0,0.2,0,0.2c0,0.1-0.1,0.1-0.1,0.2c0,0-0.1,0.1-0.2,0.1c-0.1,0-0.1,0-0.2,0c-0.1,0-0.2,0-0.2,0c-0.1,0-0.1-0.1-0.2-0.1
			c0,0-0.1-0.1-0.1-0.2s0-0.1,0-0.2s0-0.2,0-0.2c0-0.1,0.1-0.1,0.1-0.2c0,0,0.1-0.1,0.2-0.1C188.1,68.3,188.1,68.3,188.2,68.3z
			 M188.2,69.3c0.1,0,0.2,0,0.2-0.1s0.1-0.1,0.1-0.3s0-0.2-0.1-0.3c0-0.1-0.1-0.1-0.2-0.1c-0.1,0-0.2,0-0.2,0.1s0,0.2,0,0.3
			S188,69,188.2,69.3C188.1,69.2,188.1,69.3,188.2,69.3z"/>
		<path id="XMLID_105_" class="st12" d="M188.9,69.3v-1.5h0.3v0.6l0.1-0.1c0.1,0,0.1,0,0.2,0c0.1,0,0.1,0,0.2,0l0.1,0.1
			c0,0,0.1,0.1,0.1,0.2s0,0.1,0,0.2s0,0.2,0,0.2c0,0.1-0.1,0.1-0.1,0.2l-0.1,0.1c-0.1,0-0.1,0-0.2,0h-0.1c0,0,0,0-0.1,0s0,0-0.1,0
			s0,0-0.1-0.1v0.1l0,0l0,0L188.9,69.3L188.9,69.3z M189.4,68.6c-0.1,0-0.1,0-0.1,0l-0.1,0.1v0.5l0.1,0.1h0.1h0.1c0,0,0.1,0,0.1-0.1
			v-0.1c0,0,0-0.1,0-0.2s0-0.1,0-0.2s0-0.1,0-0.1S189.5,68.6,189.4,68.6L189.4,68.6z"/>
		<path id="XMLID_108_" class="st12" d="M190.3,68.1L190.3,68.1C190.3,68.2,190.3,68.2,190.3,68.1c0,0.1,0,0.1-0.1,0.1
			c0,0,0,0-0.1,0s0,0-0.1,0s0,0,0,0l0,0c0,0,0,0,0-0.1c0,0,0,0,0-0.1s0,0,0-0.1l0,0c0,0,0,0,0.1,0c0,0,0,0,0.1,0c0,0,0,0,0.1,0
			C190.3,67.9,190.3,67.9,190.3,68.1C190.3,67.9,190.3,67.9,190.3,68.1z M190.3,68.3v1.1H190v-1.1H190.3z"/>
		<path id="XMLID_111_" class="st12" d="M190.7,67.8v1.5h-0.3v-1.5H190.7z"/>
		<path id="XMLID_113_" class="st12" d="M191.4,68.3c0.1,0,0.1,0,0.2,0c0.1,0,0.1,0.1,0.1,0.1s0.1,0.1,0.1,0.2s0,0.1,0,0.2l0,0l0,0
			l0,0l0,0h-0.7c0,0.1,0,0.2,0.1,0.2c0,0,0.1,0.1,0.2,0.1h0.1h0.1c0,0,0,0,0.1,0l0,0l0,0l0,0l0.1,0.1l-0.1,0.1c0,0-0.1,0-0.1,0.1
			h-0.1h-0.1c-0.1,0-0.1,0-0.2,0c-0.1,0-0.1-0.1-0.2-0.1c0,0-0.1-0.1-0.1-0.2s0-0.2,0-0.2c0-0.1,0-0.1,0-0.2s0.1-0.1,0.1-0.2
			c0,0,0.1-0.1,0.2-0.1C191.2,68.3,191.3,68.3,191.4,68.3z M191.4,68.4c-0.1,0-0.1,0-0.2,0.1c0,0-0.1,0.1-0.1,0.2h0.5v-0.1v-0.1
			C191.5,68.6,191.5,68.6,191.4,68.4C191.5,68.6,191.4,68.4,191.4,68.4z"/>
		<path id="XMLID_116_" class="st12" d="M186.7,70.9L186.7,70.9C186.8,70.9,186.8,70.9,186.7,70.9C186.8,70.8,186.8,70.8,186.7,70.9
			l0.5-0.9l0,0l0,0l0,0l0,0h0.2v1.5h-0.2v-1c0,0,0,0,0-0.1c0,0,0,0,0-0.1l-0.4,0.8l0,0c0,0,0,0-0.1,0l0,0c0,0,0,0-0.1,0l0,0
			l-0.5-0.8c0,0,0,0,0,0.1c0,0,0,0,0,0.1v1h-0.2V70h0.2l0,0l0,0l0,0l0,0L186.7,70.9C186.7,70.8,186.7,70.8,186.7,70.9z"/>
		<path id="XMLID_118_" class="st12" d="M188.2,70.3c0.1,0,0.2,0,0.2,0c0.1,0,0.1,0.1,0.2,0.1c0,0,0.1,0.1,0.1,0.2s0,0.1,0,0.2
			s0,0.2,0,0.2c0,0.1-0.1,0.1-0.1,0.2c0,0-0.1,0.1-0.2,0.1c-0.1,0-0.1,0-0.2,0c-0.1,0-0.2,0-0.2,0c-0.1,0-0.1-0.1-0.2-0.1
			c0,0-0.1-0.1-0.1-0.2s0-0.1,0-0.2s0-0.2,0-0.2c0-0.1,0.1-0.1,0.1-0.2c0,0,0.1-0.1,0.2-0.1C188.1,70.3,188.1,70.3,188.2,70.3z
			 M188.2,71.3c0.1,0,0.2,0,0.2-0.1s0.1-0.1,0.1-0.3s0-0.2-0.1-0.3c0-0.1-0.1-0.1-0.2-0.1c-0.1,0-0.2,0-0.2,0.1s-0.1,0.1-0.1,0.3
			c0,0.1,0,0.2,0.1,0.3C188.1,71.3,188.1,71.3,188.2,71.3z"/>
		<path id="XMLID_121_" class="st12" d="M188.9,71.4v-1.1h0.2h0.1v0.1c0,0,0,0,0.1-0.1s0,0,0.1,0h0.1h0.1c0.1,0,0.1,0,0.2,0
			c0,0,0.1,0,0.1,0.1l0.1,0.1c0,0,0,0.1,0,0.2v0.7h-0.3v-0.7c0-0.1,0-0.1,0-0.1l-0.1-0.1h-0.1c0,0-0.1,0-0.1,0.1v0.8L188.9,71.4
			L188.9,71.4z"/>
		<path id="XMLID_123_" class="st12" d="M190.4,70.3c0.1,0,0.1,0,0.2,0c0.1,0,0.1,0.1,0.1,0.1s0.1,0.1,0.1,0.2s0,0.1,0,0.2l0,0l0,0
			l0,0l0,0h-0.7c0,0.1,0,0.2,0.1,0.2c0,0,0.1,0.1,0.2,0.1h0.1h0.1c0,0,0,0,0.1,0l0,0l0,0l0,0l0.1,0.1l-0.1,0.1c0,0-0.1,0-0.1,0.1
			h-0.1h-0.1c-0.1,0-0.1,0-0.2,0c-0.1,0-0.1-0.1-0.2-0.1c0,0-0.1-0.1-0.1-0.2s0-0.2,0-0.2c0-0.1,0-0.1,0-0.2s0.1-0.1,0.1-0.2
			c0,0,0.1-0.1,0.2-0.1C190.3,70.3,190.3,70.3,190.4,70.3z M190.4,70.6c-0.1,0-0.1,0-0.2,0.1c0,0-0.1,0.1-0.1,0.2h0.5v-0.1v-0.1
			C190.6,70.7,190.5,70.6,190.4,70.6C190.5,70.6,190.5,70.6,190.4,70.6z"/>
		<path id="XMLID_126_" class="st12" d="M191.4,71.8C191.3,71.8,191.3,71.8,191.4,71.8C191.3,71.8,191.3,71.8,191.4,71.8l-0.3,0.1
			l0.2-0.4l-0.4-1h0.2l0,0l0,0l0.2,0.5c0,0,0,0,0,0.1c0,0,0,0,0,0.1c0,0,0,0,0-0.1c0,0,0,0,0-0.1l0.2-0.5l0,0l0,0h0.2L191.4,71.8z"
			/>
	</g>
	<polygon id="XMLID_77_" class="st8" points="198.2,73.4 196.9,73.3 183.1,73.3 183.1,65.9 186.3,63.4 193.9,63.4 193.6,63.9 
		186.4,63.9 183.6,66.2 183.6,72.8 197,72.8 198.2,73.2 199.3,72.4 200.8,64.1 199.9,62.9 197.8,62.9 197.8,62.7 200,62.8 
		201.1,64.1 199.5,72.8 	"/>
	<path id="XMLID_76_" class="st8" d="M195.6,66.1l0.6,0.3l0.1-0.3l-1-0.4L195.6,66.1z"/>
	<path id="XMLID_99_" class="st8" d="M196.1,62.8l0.3-0.2c0,0,0.6,0.6,0.8,0.8l-0.2,0.3C197.1,63.8,196.5,63.2,196.1,62.8z"/>
</g>
<g>
	<circle class="st7" cx="202.2" cy="42.5" r="6.1"/>
	<g id="XMLID_35_">
		<path id="XMLID_37_" class="st8" d="M202.7,41l0.7-1.3l0-0.1l0.5,0.3l0.3-0.4L205,40v0.1h0.9l0.2,0.7l-0.8,4.1h0.2l-0.4,0.2l0-0.1
			l-1.6-0.5l0.5-2.8c0,0-0.6-0.4-1.2-0.4c-0.2,0-0.2,0-0.2,0L202.7,41z"/>
		<path id="XMLID_36_" class="st8" d="M205.1,45.3l-0.1-0.1l-1.7-0.5l0.5-2.9c-0.1-0.1-0.6-0.2-1.1-0.3c-0.2,0-0.2,0-0.3-0.1
			l0.9-1.8l0.6,0.3l0.4-0.4L205,40l0.1,0.1l1,0l0.3,0.8l-0.8,4h0.3L205.1,45.3z M203.7,44.4l1.6,0.5l0,0l0.9-4.1l-0.2-0.5H205v-0.2
			l-0.6-0.4l-0.4,0.4l-0.5-0.2l0,0l-0.7,1.4c0,0,0,0,0.1,0c0.6,0,1.2,0.4,1.2,0.4l0,0L203.7,44.4z"/>
	</g>
	<path id="XMLID_34_" d="M205.1,45.1l-1.7-0.5l0.8-4.3h0c0.4,0,1.6,0,1.8,0l0,0c0.1,0,0.4,0.4,0.4,0.4l0,0l-0.7,4.1L205.1,45.1z
		 M203.6,44.5l1.6,0.5l0.5-0.2l0.7-4.1c-0.1-0.1-0.3-0.4-0.3-0.4c-0.1,0-1,0-1.7,0L203.6,44.5z"/>
	<path id="XMLID_33_" d="M204.6,44.8c0,0,0.6,0.1,0.6,0c0-0.2,0.8-4.1,0.8-4.3c0-0.2-0.1-0.3-0.3-0.3h0.3l0.4,0.4l-0.7,4.1l-0.6,0.3
		L204.6,44.8z"/>
	<path id="XMLID_32_" d="M205.2,40.4l0.6,0l-0.4,2.2C205.4,42.6,205.4,40.9,205.2,40.4z"/>
	<path id="XMLID_31_" d="M204.4,43.1C204.4,43.1,204.4,43.1,204.4,43.1L204,43l0,0.2l0,0l0.4,0.1L204.4,43.1z"/>
	<path id="XMLID_30_" d="M205.2,43.3C205.2,43.3,205.2,43.3,205.2,43.3l-0.5-0.1l0,0.2l0,0l0.4,0.1L205.2,43.3z"/>
	<path id="XMLID_29_" d="M205.1,43.8C205.1,43.7,205.1,43.7,205.1,43.8l-0.5-0.1l0,0.2l0,0L205,44L205.1,43.8z"/>
	<path id="XMLID_28_" d="M205,44.3C205,44.2,205,44.2,205,44.3l-0.5-0.1l0,0.2l0,0l0.4,0.1L205,44.3z"/>
	<path id="XMLID_27_" d="M204.3,44.1C204.3,44,204.3,44,204.3,44.1l-0.5-0.1l0,0.2l0,0l0.4,0.1L204.3,44.1z"/>
	<path id="XMLID_26_" d="M204.4,43.6C204.4,43.5,204.4,43.5,204.4,43.6l-0.5-0.1l0,0.2l0,0l0.4,0.1L204.4,43.6z"/>
	<path id="XMLID_25_" class="st9" d="M205.2,42.9c0,0-0.1-0.7-1.1-1.1c0,0,0,0.7,0,0.8L205.2,42.9z"/>
	<path id="XMLID_24_" class="st10" d="M205.3,42.6c0,0-0.3-1-2.7-1.5l0.8-1.4C203.5,39.7,205.4,40.3,205.3,42.6z"/>
	<path id="XMLID_23_" class="st10" d="M204.1,39.8c0,0,1,0.8,1.2,1.5c0,0-0.1-1.3-0.9-1.7L204.1,39.8z"/>
	<g id="XMLID_18_">
		<path id="XMLID_22_" class="st11" d="M199.7,41.9L199.7,41.9C199.7,41.9,199.7,41.9,199.7,41.9C199.8,41.9,199.8,41.8,199.7,41.9
			l0.4-0.7l0,0l0,0l0,0l0,0h0.1v1.1h-0.1v-0.7v0v0l-0.3,0.6c0,0,0,0,0,0h0h0h0c0,0,0,0,0,0l-0.3-0.6v0v0v0.7H199v-1.1h0.1l0,0l0,0
			l0,0l0,0l0.3,0.6C199.7,41.8,199.7,41.8,199.7,41.9z"/>
		<path id="XMLID_21_" class="st11" d="M201.3,41.1v0.1h-0.3v0.9h-0.2v-0.9h-0.3v-0.1H201.3z"/>
		<path id="XMLID_19_" class="st11" d="M201.5,41.1L201.5,41.1C201.5,41.2,201.5,41.2,201.5,41.1C201.5,41.2,201.5,41.2,201.5,41.1
			l0.6,0.8v0v0v-0.7h0.2v1.1h-0.1h0c0,0,0,0,0,0l-0.6-0.7v0v0v0.7h-0.2v-1.1H201.5L201.5,41.1z"/>
	</g>
	<g id="XMLID_5_">
		<path id="XMLID_17_" class="st12" d="M199.5,43L199.5,43C199.6,43,199.6,43,199.5,43C199.6,43,199.6,43,199.5,43l0.2-0.4l0,0l0,0
			l0,0l0,0h0.1v0.7h-0.1v-0.5c0,0,0,0,0,0c0,0,0,0,0,0L199.5,43L199.5,43C199.6,43.1,199.6,43.1,199.5,43L199.5,43
			C199.5,43.1,199.5,43.1,199.5,43L199.5,43l-0.3-0.3c0,0,0,0,0,0c0,0,0,0,0,0v0.5h-0.1v-0.7h0.1l0,0l0,0l0,0l0,0L199.5,43
			C199.5,43,199.5,43,199.5,43z"/>
		<path id="XMLID_16_" class="st12" d="M200.2,42.8C200.3,42.8,200.3,42.8,200.2,42.8c0.1,0,0.1,0,0.2,0c0,0,0,0,0,0.1s0,0,0,0.1
			c0,0,0,0.1,0,0.1c0,0,0,0,0,0.1c0,0,0,0-0.1,0c0,0,0,0-0.1,0s-0.1,0-0.1,0c0,0,0,0-0.1,0c0,0,0,0,0-0.1c0,0,0,0,0-0.1
			c0,0,0-0.1,0-0.1c0,0,0,0,0-0.1C200.1,42.8,200.1,42.8,200.2,42.8C200.2,42.8,200.2,42.8,200.2,42.8z M200.2,43.2
			C200.3,43.2,200.3,43.2,200.2,43.2c0.1-0.1,0.1-0.1,0.1-0.2c0-0.1,0-0.1,0-0.1c0,0,0,0-0.1,0s-0.1,0-0.1,0c0,0,0,0.1,0,0.1
			C200.1,43.1,200.1,43.1,200.2,43.2C200.2,43.2,200.2,43.2,200.2,43.2z"/>
		<path id="XMLID_15_" class="st12" d="M200.6,43.3v-0.7h0.1v0.3l0,0c0,0,0,0,0.1,0c0,0,0,0,0.1,0l0,0c0,0,0,0,0,0.1s0,0,0,0.1
			c0,0,0,0.1,0,0.1c0,0,0,0,0,0.1l0,0c0,0,0,0-0.1,0h0c0,0,0,0,0,0s0,0,0,0C200.7,43.3,200.7,43.3,200.6,43.3L200.6,43.3L200.6,43.3
			L200.6,43.3L200.6,43.3L200.6,43.3z M200.8,42.9C200.8,42.9,200.8,42.9,200.8,42.9L200.8,42.9l-0.1,0.3l0,0h0h0c0,0,0,0,0,0v0
			c0,0,0,0,0-0.1C200.9,43,200.9,43,200.8,42.9C200.9,42.9,200.9,42.9,200.8,42.9C200.9,42.9,200.9,42.9,200.8,42.9L200.8,42.9z"/>
		<path id="XMLID_14_" class="st12" d="M201.3,42.6L201.3,42.6C201.3,42.7,201.3,42.7,201.3,42.6C201.3,42.7,201.3,42.7,201.3,42.6
			C201.2,42.7,201.2,42.7,201.3,42.6c-0.1,0-0.1,0-0.1,0s0,0,0,0l0,0c0,0,0,0,0,0c0,0,0,0,0,0c0,0,0,0,0,0l0,0
			C201.1,42.5,201.1,42.5,201.3,42.6C201.2,42.5,201.2,42.5,201.3,42.6C201.2,42.5,201.2,42.5,201.3,42.6
			C201.3,42.6,201.3,42.6,201.3,42.6C201.3,42.6,201.3,42.6,201.3,42.6z M201.3,42.8v0.5h-0.1v-0.5H201.3z"/>
		<path id="XMLID_13_" class="st12" d="M201.5,42.5v0.7h-0.1v-0.7H201.5z"/>
		<path id="XMLID_11_" class="st12" d="M201.8,42.8C201.9,42.8,201.9,42.8,201.8,42.8c0.1,0,0.1,0,0.1,0s0,0,0,0.1s0,0,0,0.1l0,0
			l0,0l0,0l0,0h-0.3c0,0,0,0.1,0,0.1c0,0,0,0,0.1,0h0h0c0,0,0,0,0,0l0,0l0,0l0,0l0,0l0,0c0,0,0,0,0,0h0h0c0,0,0,0-0.1,0
			c0,0,0,0-0.1,0c0,0,0,0,0-0.1c0,0,0-0.1,0-0.1c0,0,0,0,0-0.1c0,0,0,0,0-0.1C201.6,42.9,201.7,42.8,201.8,42.8
			C201.7,42.8,201.8,42.8,201.8,42.8z M201.8,42.8C201.8,42.8,201.8,42.8,201.8,42.8c-0.1,0-0.1,0.1-0.1,0.1h0.2L201.8,42.8
			L201.8,42.8C201.9,42.9,201.9,42.9,201.8,42.8C201.9,42.9,201.8,42.8,201.8,42.8z"/>
		<path id="XMLID_10_" class="st12" d="M199.5,44.1L199.5,44.1C199.6,44.1,199.6,44.1,199.5,44.1C199.6,44,199.6,44,199.5,44.1
			l0.2-0.4l0,0l0,0l0,0l0,0h0.1v0.7h-0.1v-0.5c0,0,0,0,0,0c0,0,0,0,0,0L199.5,44.1L199.5,44.1C199.6,44.2,199.6,44.2,199.5,44.1
			L199.5,44.1C199.5,44.2,199.5,44.2,199.5,44.1L199.5,44.1l-0.3-0.3c0,0,0,0,0,0c0,0,0,0,0,0v0.5h-0.1v-0.7h0.1l0,0l0,0l0,0l0,0
			L199.5,44.1C199.5,44,199.5,44,199.5,44.1z"/>
		<path id="XMLID_9_" class="st12" d="M200.2,43.8C200.3,43.8,200.3,43.8,200.2,43.8c0.1,0,0.1,0,0.2,0c0,0,0,0,0,0.1c0,0,0,0,0,0.1
			s0,0.1,0,0.1c0,0,0,0,0,0.1c0,0,0,0-0.1,0c0,0,0,0-0.1,0s-0.1,0-0.1,0c0,0,0,0-0.1,0c0,0,0,0,0-0.1c0,0,0,0,0-0.1s0-0.1,0-0.1
			c0,0,0,0,0-0.1C200.1,43.8,200.1,43.8,200.2,43.8C200.2,43.8,200.2,43.8,200.2,43.8z M200.2,44.2
			C200.3,44.2,200.3,44.2,200.2,44.2c0.1-0.1,0.1-0.1,0.1-0.2s0-0.1,0-0.1c0,0,0,0-0.1,0s-0.1,0-0.1,0s0,0,0,0.1
			C200.1,44.1,200.1,44.1,200.2,44.2C200.2,44.2,200.2,44.2,200.2,44.2z"/>
		<path id="XMLID_8_" class="st12" d="M200.6,44.3v-0.5h0.1h0v0c0,0,0,0,0,0c0,0,0,0,0,0h0h0c0,0,0,0,0.1,0c0,0,0,0,0,0l0,0
			c0,0,0,0,0,0.1v0.3H201V44c0,0,0,0,0,0l0,0h0c0,0,0,0,0,0v0.4L200.6,44.3L200.6,44.3z"/>
		<path id="XMLID_7_" class="st12" d="M201.3,43.8C201.4,43.8,201.4,43.8,201.3,43.8c0.1,0,0.1,0,0.1,0s0,0,0,0.1c0,0,0,0,0,0.1l0,0
			l0,0l0,0l0,0h-0.3c0,0,0,0.1,0,0.1c0,0,0,0,0.1,0h0h0c0,0,0,0,0,0l0,0l0,0l0,0l0,0l0,0c0,0,0,0,0,0h0h0c0,0,0,0-0.1,0
			c0,0,0,0-0.1,0c0,0,0,0,0-0.1s0-0.1,0-0.1c0,0,0,0,0-0.1c0,0,0,0,0-0.1C201.1,43.9,201.2,43.8,201.3,43.8
			C201.3,43.8,201.3,43.8,201.3,43.8z M201.3,43.9C201.3,43.9,201.3,43.9,201.3,43.9c-0.1,0-0.1,0.1-0.1,0.1h0.2L201.3,43.9
			L201.3,43.9C201.4,43.9,201.4,43.9,201.3,43.9C201.4,43.9,201.4,43.9,201.3,43.9z"/>
		<path id="XMLID_6_" class="st12" d="M201.8,44.5C201.8,44.5,201.8,44.5,201.8,44.5C201.8,44.5,201.8,44.5,201.8,44.5l-0.1,0
			l0.1-0.2l-0.2-0.5h0.1l0,0l0,0l0.1,0.2c0,0,0,0,0,0c0,0,0,0,0,0c0,0,0,0,0,0c0,0,0,0,0,0l0.1-0.2l0,0l0,0h0.1L201.8,44.5z"/>
	</g>
	<polygon id="XMLID_4_" class="st8" points="205.2,45.3 204.5,45.2 197.7,45.2 197.7,41.6 199.3,40.4 203.1,40.4 202.9,40.6 
		199.4,40.6 198,41.7 198,45 204.6,45 205.2,45.1 205.7,44.8 206.5,40.6 206,40.1 205,40.1 205,40 206.1,40 206.6,40.6 205.8,44.9 	
		"/>
	<path id="XMLID_3_" class="st8" d="M203.9,41.6l0.3,0.1l0-0.1l-0.5-0.2L203.9,41.6z"/>
	<path id="XMLID_2_" class="st8" d="M204.2,40.1l0.1-0.1c0,0,0.3,0.3,0.4,0.4l-0.1,0.1C204.6,40.5,204.3,40.2,204.2,40.1z"/>
</g>
<g>
	<g id="Layer_2_1_">
		<circle class="st13" cx="172" cy="81" r="6"/>
	</g>
	<g>
		<g id="Layer_1_1_">
		</g>
		<g>
			<path id="XMLID_20_" class="st8" d="M174.6,80.2c0.4-1.3-1.4-1.9-1.4-1.9l0.3-1.2l-0.7-0.1l-0.3,1.1L172,78l0.3-1.1l-0.7-0.2
				l-0.3,1.2l-1.4-0.3l-0.2,0.7c0.7,0.1,1,0.3,0.9,0.5c-0.1,0.2-0.8,2.9-0.8,3.2c-0.1,0.3-0.2,0.3-0.3,0.3c-0.1-0.1-0.6-0.1-0.6-0.1
				l-0.3,0.8l1.4,0.4l-0.3,1.2l0.7,0.1l0.3-1.2l0.6,0.1l-0.3,1.2l0.7,0.2l0.3-1.2c0.1,0,0.2,0.1,0.6,0.1c0.8,0.1,1.5-0.1,1.9-1.2
				c0.3-1-0.7-1.6-0.7-1.6S174.4,80.9,174.6,80.2z M173.1,82.1c-0.1,0.6-0.6,0.8-1.1,0.6c-0.6-0.1-1.2-0.3-1.2-0.3l0.4-1.6
				C172.7,81.3,173.2,81.6,173.1,82.1z M173.3,80c-0.1,0.3-0.6,0.6-1,0.5c-0.4-0.1-0.8-0.2-0.8-0.2l0.3-1.4c0,0,0.1,0,0.7,0.1
				C173.1,79.1,173.4,79.6,173.3,80z"/>
		</g>
	</g>
</g>
<g>
	<g id="Layer_2_2_">
		<circle class="st13" cx="183.1" cy="40" r="8.7"/>
	</g>
	<g>
		<g id="Layer_1_2_">
		</g>
		<g>
			<path id="XMLID_1_" class="st8" d="M186.9,38.8c0.6-1.9-2.1-2.7-2.1-2.7l0.5-1.7l-1-0.2l-0.4,1.6l-0.8-0.2l0.4-1.6l-1-0.3
				l-0.5,1.7l-2-0.5l-0.3,1c1,0.2,1.4,0.4,1.3,0.7s-1.1,4.2-1.2,4.6c-0.1,0.4-0.3,0.4-0.5,0.4c-0.2-0.1-0.8-0.2-0.8-0.2l-0.5,1.2
				l2.1,0.6l-0.5,1.7l1,0.2l0.4-1.7l0.9,0.2l-0.4,1.7l1,0.3l0.4-1.7c0.1,0,0.3,0.1,0.9,0.1c1.2,0.2,2.2-0.2,2.8-1.8
				c0.5-1.5-1-2.3-1-2.3S186.6,39.9,186.9,38.8z M184.7,41.6c-0.2,0.8-0.9,1.1-1.6,0.9c-0.8-0.2-1.7-0.4-1.7-0.4l0.6-2.3
				C184.1,40.4,184.8,40.9,184.7,41.6z M185,38.5c-0.1,0.5-0.9,0.8-1.5,0.7c-0.6-0.1-1.2-0.3-1.2-0.3l0.5-2.1c0,0,0.1,0,1,0.2
				C184.7,37.2,185.1,37.9,185,38.5z"/>
		</g>
	</g>
</g>
</svg>
