<svg id="Calque_2" data-name="Calque 2" xmlns="http://www.w3.org/2000/svg" xmlns:xlink="http://www.w3.org/1999/xlink" viewBox="0 0 1450.74 1428.48"><defs><style>.cls-1{font-size:178.18px;font-family:AeonisLTPro-BlackItalic, Aeonis LT Pro;font-weight:800;font-style:italic;}.cls-1,.cls-3{fill:#fff;}.cls-2{fill:url(#Dégradé_sans_nom_8);}</style><linearGradient id="Dégradé_sans_nom_8" x1="514.36" y1="686.18" x2="850.23" y2="686.18" gradientUnits="userSpaceOnUse"><stop offset="0" stop-color="#0a750c"/><stop offset="1" stop-color="#f1c213"/></linearGradient></defs><text class="cls-1" transform="translate(424.96 986.77) scale(0.78 1)">change</text><polygon class="cls-2" points="988.47 546.16 880.94 546.16 835.96 626.01 815.39 546.16 704.86 546.16 755.84 681.8 652.6 826.2 763.55 826.2 814.11 732.12 835.96 826.2 949.05 826.2 892.08 676.88 988.47 546.16"/><path class="cls-3" d="M573.77,617.89q20.72-7.49,59.34-7.49,3.3.54,11.78,1.6c5.65.72,9.25,1.43,10.83,2.14l12.72-67.42q-3.78-1.07-21-2.94t-26.14-1.87A492.46,492.46,0,0,0,533,550.2q-45.45,8.31-60.51,14.18l-17.45,92.74h-64.2q-6.19,19.21-12.41,38.44h69.38l-3.6,19.16H376.47l-12.41,38.44H437l-13,69.13H535.62l12.91-69.13h72.74q5-19.21,9.92-38.44H555.7l3.58-19.16h76.39q5-19.21,9.92-38.44H566.45Z"/></svg>