<svg id="Calque_2" data-name="Calque 2" xmlns="http://www.w3.org/2000/svg" viewBox="0 0 1450.74 1428.48"><defs><style>.cls-1,.cls-2{fill:#fff;}.cls-2{font-size:178.18px;font-family:AeonisLTPro-BlackItalic, Aeonis LT Pro;font-weight:800;font-style:italic;}</style></defs><path class="cls-1" d="M633.67,185.23c26.57-17.42,54.55-30.38,83.24-37.89a238.7,238.7,0,0,1,43.35-7.22l5.44-.39c.91-.08,1.81-.1,2.72-.11l2.73,0,5.44-.09,2.72,0c.91,0,1.82.06,2.72.08l10.87.45,10.84,1.08a246.63,246.63,0,0,1,42.82,9.07,266.91,266.91,0,0,1,41.39,17,291.77,291.77,0,0,1,39.28,24.31l4.74,3.49,4.68,3.66c3.14,2.39,6.17,5,9.25,7.56,6.08,5.22,12.07,10.64,17.9,16.36-6.07-5.21-12.27-10.1-18.54-14.78-3.17-2.26-6.3-4.62-9.52-6.73L931,197.78l-4.85-3.06A273.55,273.55,0,0,0,886.31,174a251.61,251.61,0,0,0-41.2-13.21,236.44,236.44,0,0,0-41.93-5.27l-10.5-.15-10.48.46c-.88,0-1.75,0-2.62.15l-2.62.26-5.22.53-2.61.26c-.87.08-1.74.17-2.61.33l-5.2.81a235,235,0,0,0-41.08,10.42c-27,9.45-52.92,24-77.17,42.49Z"/><polygon class="cls-1" points="598.36 231.7 668.62 217.57 641.59 196.21 641.45 152.78 598.36 231.7"/><path class="cls-1" d="M914.69,376.72c-25.76,19.65-53.13,35-81.44,44.91a244.64,244.64,0,0,1-43,10.91l-5.41.85c-.9.16-1.81.26-2.72.34l-2.71.28-5.43.55-2.72.27c-.9.09-1.81.1-2.72.15l-10.87.48-10.86-.15a243,243,0,0,1-43.14-5.4,256.92,256.92,0,0,1-42.05-13.46,276.66,276.66,0,0,1-40.26-20.91l-4.89-3.08-4.83-3.26c-3.23-2.11-6.38-4.49-9.56-6.75-6.3-4.7-12.51-9.59-18.58-14.8,6.28,4.68,12.69,9,19.15,13.17,3.26,2,6.48,4.07,9.79,5.9l4.93,2.82,5,2.64A261.35,261.35,0,0,0,663,409.44a243.9,243.9,0,0,0,41.7,9.67,233.37,233.37,0,0,0,42.07,1.68l10.49-.74,10.45-1.36c.87-.12,1.74-.2,2.61-.36l2.59-.49,5.2-1,2.59-.49c.87-.15,1.73-.32,2.59-.54l5.16-1.26A242.15,242.15,0,0,0,829,400.68c26.52-11.74,51.78-28.48,75.18-49Z"/><polygon class="cls-1" points="947.91 327.33 878.39 347.42 906.31 366.43 908.34 409.77 947.91 327.33"/><text class="cls-2" transform="translate(454.46 972.31) scale(0.78 1)">change</text><polygon class="cls-1" points="1045.91 531.69 938.38 531.69 893.4 611.54 872.83 531.69 762.3 531.69 813.29 667.33 710.04 811.73 821 811.73 871.55 717.65 893.4 811.73 1006.5 811.73 949.52 662.41 1045.91 531.69"/><path class="cls-1" d="M631.21,603.42q20.73-7.49,59.35-7.49,3.29.54,11.77,1.61t10.83,2.14l12.72-67.42q-3.78-1.07-21-2.94a262,262,0,0,0-26.14-1.88,491.39,491.39,0,0,0-88.3,8.3Q545,544,530,549.92l-17.44,92.74h-64.2L435.9,681.09h69.39l-3.61,19.17H433.92L421.5,738.69h72.95l-13,69.13H593.07L606,738.69h72.75q4.95-19.22,9.92-38.43h-75.5l3.58-19.17h76.4q4.95-19.22,9.92-38.43H623.89Z"/></svg>