<svg id="Calque_2" data-name="Calque 2" xmlns="http://www.w3.org/2000/svg" xmlns:xlink="http://www.w3.org/1999/xlink" viewBox="0 0 1450.74 1428.48"><defs><style>.cls-1{fill:url(#Dégradé_sans_nom_18);}.cls-2{fill:url(#Dégradé_sans_nom_18-2);}.cls-3{fill:url(#Dégradé_sans_nom_18-3);}.cls-4{fill:url(#Dégradé_sans_nom_18-4);}.cls-5{font-size:170.97px;fill:#fff;font-family:AeonisLTPro-BlackItalic, Aeonis LT Pro;font-weight:800;font-style:italic;}.cls-6{fill:url(#Dégradé_sans_nom_8);}.cls-7{fill:url(#Dégradé_sans_nom_7);}</style><linearGradient id="Dégradé_sans_nom_18" x1="1057.85" y1="664.91" x2="1057.85" y2="561.39" gradientUnits="userSpaceOnUse"><stop offset="0" stop-color="#0a750c"/><stop offset="1" stop-color="#f0dc05"/></linearGradient><linearGradient id="Dégradé_sans_nom_18-2" x1="784.67" y1="676.35" x2="784.67" y2="578" xlink:href="#Dégradé_sans_nom_18"/><linearGradient id="Dégradé_sans_nom_18-3" x1="975.83" y1="930.29" x2="975.83" y2="825.88" xlink:href="#Dégradé_sans_nom_18"/><linearGradient id="Dégradé_sans_nom_18-4" x1="1247.01" y1="898.28" x2="1247.01" y2="795.53" xlink:href="#Dégradé_sans_nom_18"/><linearGradient id="Dégradé_sans_nom_8" x1="264.21" y1="751.95" x2="586.49" y2="751.95" gradientUnits="userSpaceOnUse"><stop offset="0" stop-color="#0a750c"/><stop offset="1" stop-color="#f1c213"/></linearGradient><linearGradient id="Dégradé_sans_nom_7" x1="119.99" y1="748.04" x2="981.17" y2="748.04" gradientUnits="userSpaceOnUse"><stop offset="0" stop-color="#0a750c"/><stop offset="1" stop-color="#f0dc05"/></linearGradient></defs><path class="cls-1" d="M785,618.44c43.93-21.71,90.2-37.86,137.62-47.21a513.72,513.72,0,0,1,71.67-9l9-.48c1.5-.1,3-.13,4.5-.14l4.51-.05,9-.11,4.5-.05c1.49,0,3,.07,4.49.1l18,.56,17.92,1.34a519.76,519.76,0,0,1,204.16,62.8l7.84,4.36,7.73,4.56c5.19,3,10.2,6.27,15.29,9.41,10,6.52,19.95,13.27,29.6,20.39-10-6.49-20.29-12.59-30.66-18.42-5.24-2.81-10.4-5.75-15.73-8.38l-7.92-4-8-3.82A515.74,515.74,0,0,0,1134.52,588a510.12,510.12,0,0,0-69.31-6.57l-17.36-.19-17.34.58c-1.44.06-2.88.06-4.33.17l-4.32.33-8.64.66-4.31.33c-1.44.09-2.88.21-4.31.4l-8.6,1a492.14,492.14,0,0,0-67.91,13,526.92,526.92,0,0,0-127.59,53Z"/><polygon class="cls-2" points="726.6 676.35 842.75 658.75 798.06 632.13 797.83 578 726.6 676.35"/><path class="cls-3" d="M1249.56,857.08c-42.59,24.49-87.84,43.59-134.64,56a515.76,515.76,0,0,1-71,13.59l-9,1.06c-1.49.2-3,.32-4.48.43l-4.5.34-9,.69-4.49.34c-1.49.11-3,.12-4.49.18l-18,.6-18-.18a516.52,516.52,0,0,1-207.4-49.57l-8.08-3.84-8-4.06c-5.35-2.63-10.55-5.6-15.8-8.41-10.42-5.86-20.69-12-30.73-18.45,10.4,5.84,21,11.26,31.67,16.42,5.39,2.46,10.72,5.07,16.18,7.35l8.15,3.51,8.22,3.3a513.81,513.81,0,0,0,136.09,33.55A510.18,510.18,0,0,0,972,912l17.34-.93,17.27-1.69c1.44-.15,2.88-.24,4.31-.45l4.3-.61,8.58-1.21,4.29-.6c1.43-.19,2.86-.4,4.28-.69l8.52-1.56a494.38,494.38,0,0,0,67-17.32,530.63,530.63,0,0,0,124.29-61.07Z"/><polygon class="cls-4" points="1304.47 795.53 1189.55 820.57 1235.7 844.26 1239.05 898.27 1304.47 795.53"/><text class="cls-5" transform="translate(738.6 790.21) scale(0.78 1)">change</text><polygon class="cls-6" points="719.14 617.6 615.96 617.6 572.8 694.22 553.07 617.6 447.01 617.6 495.93 747.75 396.86 886.31 503.32 886.31 551.83 796.04 572.8 886.31 681.32 886.31 626.65 743.03 719.14 617.6"/><path class="cls-7" d="M321.22,686.43q19.88-7.18,56.94-7.19,3.15.51,11.3,1.54t10.39,2.05l12.2-64.69q-3.62-1-20.11-2.82a250.94,250.94,0,0,0-25.08-1.8,472.09,472.09,0,0,0-84.73,8q-43.62,8-58.07,13.6l-16.74,89h-61.6L133.81,761h66.57l-3.45,18.39h-65L120,816.22h70l-12.48,66.34h107.1L297,816.22h69.8q4.76-18.44,9.52-36.88H303.88L307.31,761h73.31l9.51-36.88H314.19Z"/></svg>