<svg id="Calque_2" data-name="Calque 2" xmlns="http://www.w3.org/2000/svg" xmlns:xlink="http://www.w3.org/1999/xlink" viewBox="0 0 1450.74 1428.48"><defs><style>.cls-1{fill:url(#Dégradé_sans_nom_18);}.cls-2{fill:url(#Dégradé_sans_nom_18-2);}.cls-3{fill:url(#Dégradé_sans_nom_18-3);}.cls-4{fill:url(#Dégradé_sans_nom_18-4);}.cls-5{font-size:178.18px;font-family:AeonisLTPro-BlackItalic, Aeonis LT Pro;font-weight:800;font-style:italic;}.cls-6{fill:#fff;}.cls-7{fill:url(#Dégradé_sans_nom_7);}</style><linearGradient id="Dégradé_sans_nom_18" x1="753.84" y1="299.97" x2="753.84" y2="216.9" gradientUnits="userSpaceOnUse"><stop offset="0" stop-color="#0a750c"/><stop offset="1" stop-color="#f0dc05"/></linearGradient><linearGradient id="Dégradé_sans_nom_18-2" x1="588.6" y1="309.15" x2="588.6" y2="230.24" xlink:href="#Dégradé_sans_nom_18"/><linearGradient id="Dégradé_sans_nom_18-3" x1="704.23" y1="512.91" x2="704.23" y2="429.14" xlink:href="#Dégradé_sans_nom_18"/><linearGradient id="Dégradé_sans_nom_18-4" x1="868.26" y1="487.23" x2="868.26" y2="404.78" xlink:href="#Dégradé_sans_nom_18"/><linearGradient id="Dégradé_sans_nom_7" x1="361.89" y1="718.27" x2="1259.37" y2="718.27" gradientUnits="userSpaceOnUse"><stop offset="0" stop-color="#0a750c"/><stop offset="1" stop-color="#f0dc05"/></linearGradient></defs><path class="cls-1" d="M588.77,262.69c26.57-17.42,54.56-30.39,83.25-37.89a239.59,239.59,0,0,1,43.35-7.23l5.44-.38c.9-.08,1.81-.11,2.72-.11l2.72-.05,5.45-.08,2.72,0c.91,0,1.81.06,2.72.08l10.87.45,10.84,1.07a247.75,247.75,0,0,1,42.82,9.07,266.46,266.46,0,0,1,41.38,17,291.87,291.87,0,0,1,39.29,24.31l4.74,3.49,4.68,3.66c3.13,2.39,6.17,5,9.24,7.55,6.09,5.23,12.08,10.65,17.91,16.36-6.07-5.21-12.28-10.1-18.55-14.78-3.17-2.25-6.29-4.61-9.51-6.72l-4.79-3.24-4.86-3.06a274.44,274.44,0,0,0-39.78-20.69,251.36,251.36,0,0,0-41.21-13.2A235.3,235.3,0,0,0,758.29,233l-10.5-.15-10.49.46c-.87.05-1.74.05-2.61.14l-2.62.27-5.23.52-2.61.27c-.87.07-1.74.17-2.6.32l-5.2.82a233.62,233.62,0,0,0-41.08,10.41c-27,9.46-52.92,24-77.18,42.5Z"/><polygon class="cls-2" points="553.47 309.15 623.73 295.03 596.7 273.67 596.56 230.24 553.47 309.15"/><path class="cls-3" d="M869.8,454.17c-25.76,19.65-53.13,35-81.44,44.92a244.83,244.83,0,0,1-43,10.9l-5.42.85c-.9.16-1.8.26-2.71.35l-2.72.27-5.43.55-2.71.27c-.9.1-1.81.1-2.72.15l-10.87.48L702,512.77a242.06,242.06,0,0,1-43.14-5.41,256.57,256.57,0,0,1-42.05-13.45A277.34,277.34,0,0,1,576.51,473l-4.88-3.08-4.83-3.25c-3.24-2.12-6.38-4.5-9.56-6.75-6.3-4.7-12.51-9.6-18.59-14.81,6.29,4.69,12.7,9,19.16,13.18,3.26,2,6.48,4.07,9.79,5.89l4.92,2.83,5,2.64a261.35,261.35,0,0,0,40.62,17.26,243.87,243.87,0,0,0,41.7,9.66,233.31,233.31,0,0,0,42.07,1.69l10.49-.75,10.45-1.35c.87-.13,1.74-.2,2.6-.37l2.6-.48,5.19-1,2.6-.48c.86-.15,1.73-.32,2.59-.55l5.15-1.26a242.21,242.21,0,0,0,40.55-13.89c26.51-11.74,51.77-28.48,75.18-49Z"/><polygon class="cls-4" points="903.01 404.78 833.5 424.87 861.42 443.89 863.45 487.23 903.01 404.78"/><text class="cls-5" transform="translate(421.5 1018.13) scale(0.78 1)">change</text><polygon class="cls-6" points="986.3 582.33 878.77 582.33 833.78 662.18 813.22 582.33 702.69 582.33 753.67 717.97 650.43 862.37 761.38 862.37 811.93 768.29 833.78 862.37 946.88 862.37 889.91 713.05 986.3 582.33"/><path class="cls-7" d="M571.6,654.06q20.71-7.48,59.34-7.49,3.3.54,11.78,1.6c5.65.72,9.25,1.43,10.83,2.14l12.72-67.41c-2.52-.72-9.51-1.69-21-2.95s-20.18-1.87-26.14-1.87a492.38,492.38,0,0,0-88.31,8.29q-45.45,8.31-60.52,14.18L452.9,693.29H388.7q-6.21,19.22-12.41,38.44h69.38l-3.6,19.16H374.3l-12.41,38.44h72.95l-13,69.13H533.45l12.91-69.13H619.1q5-19.22,9.92-38.44H553.53l3.58-19.16H633.5q5-19.22,9.92-38.44H564.28Z"/></svg>