<svg id="Calque_2" data-name="Calque 2" xmlns="http://www.w3.org/2000/svg" xmlns:xlink="http://www.w3.org/1999/xlink" viewBox="0 0 1450.74 1428.48"><defs><style>.cls-1{fill:url(#Dégradé_sans_nom_18);}.cls-2{fill:url(#Dégradé_sans_nom_18-2);}.cls-3{fill:url(#Dégradé_sans_nom_18-3);}.cls-4{fill:url(#Dégradé_sans_nom_18-4);}.cls-5{font-size:162.13px;font-family:AeonisLTPro-BlackItalic, Aeonis LT Pro;font-weight:800;font-style:italic;}.cls-6{fill:url(#Dégradé_sans_nom_8);}.cls-7{fill:url(#Dégradé_sans_nom_7);}</style><linearGradient id="Dégradé_sans_nom_18" x1="1041.37" y1="648.63" x2="1041.37" y2="550.46" gradientUnits="userSpaceOnUse"><stop offset="0" stop-color="#0a750c"/><stop offset="1" stop-color="#f0dc05"/></linearGradient><linearGradient id="Dégradé_sans_nom_18-2" x1="782.32" y1="659.48" x2="782.32" y2="566.22" xlink:href="#Dégradé_sans_nom_18"/><linearGradient id="Dégradé_sans_nom_18-3" x1="963.59" y1="900.28" x2="963.59" y2="801.28" xlink:href="#Dégradé_sans_nom_18"/><linearGradient id="Dégradé_sans_nom_18-4" x1="1220.74" y1="869.92" x2="1220.74" y2="772.49" xlink:href="#Dégradé_sans_nom_18"/><linearGradient id="Dégradé_sans_nom_8" x1="288.77" y1="731.17" x2="594.39" y2="731.17" gradientUnits="userSpaceOnUse"><stop offset="0" stop-color="#0a750c"/><stop offset="1" stop-color="#f1c213"/></linearGradient><linearGradient id="Dégradé_sans_nom_7" x1="152.02" y1="727.46" x2="968.65" y2="727.46" gradientUnits="userSpaceOnUse"><stop offset="0" stop-color="#0a750c"/><stop offset="1" stop-color="#f0dc05"/></linearGradient></defs><path class="cls-1" d="M782.59,604.56c41.66-20.58,85.53-35.9,130.51-44.77a487.46,487.46,0,0,1,67.95-8.54l8.53-.45c1.42-.1,2.85-.13,4.27-.14l4.27,0,8.54-.1,4.26,0c1.42,0,2.84.07,4.27.1l17,.53,17,1.27a492.52,492.52,0,0,1,193.59,59.56l7.44,4.12,7.33,4.33c4.92,2.82,9.68,5.94,14.5,8.93,9.53,6.17,18.92,12.57,28.07,19.33-9.52-6.16-19.25-11.94-29.08-17.47-5-2.66-9.86-5.45-14.91-7.94l-7.52-3.83-7.6-3.61a489.5,489.5,0,0,0-127-40.06,486.26,486.26,0,0,0-65.72-6.23l-16.47-.17-16.44.54c-1.37.06-2.74.06-4.1.17l-4.1.31-8.19.62-4.1.31c-1.36.1-2.72.21-4.08.39l-8.16,1a467.31,467.31,0,0,0-64.39,12.3,500.49,500.49,0,0,0-121,50.22Z"/><polygon class="cls-2" points="727.24 659.48 837.39 642.78 795.01 617.54 794.79 566.22 727.24 659.48"/><path class="cls-3" d="M1223.16,830.86c-40.39,23.23-83.3,41.34-127.68,53.08a488.35,488.35,0,0,1-67.33,12.89l-8.49,1c-1.41.18-2.83.3-4.25.4l-4.26.33-8.52.65-4.25.32c-1.42.11-2.84.11-4.26.17l-17,.57-17-.17a490,490,0,0,1-196.67-47l-7.66-3.64-7.57-3.85c-5.07-2.49-10-5.31-15-8-9.87-5.56-19.61-11.34-29.13-17.5,9.85,5.54,19.9,10.68,30,15.57,5.11,2.34,10.16,4.81,15.34,7l7.73,3.34,7.8,3.12A487.14,487.14,0,0,0,894,881a484.59,484.59,0,0,0,65.95,2l16.45-.88,16.38-1.6c1.36-.15,2.73-.24,4.08-.43l4.08-.58,8.14-1.15,4.07-.57c1.35-.18,2.71-.38,4-.65l8.09-1.49a468.77,468.77,0,0,0,63.56-16.42,503.34,503.34,0,0,0,117.86-57.9Z"/><polygon class="cls-4" points="1275.23 772.49 1166.25 796.24 1210.02 818.71 1213.19 869.92 1275.23 772.49"/><text class="cls-5" transform="translate(738.63 771.45) scale(0.78 1)">change</text><polygon class="cls-6" points="720.18 603.76 622.33 603.76 581.4 676.42 562.69 603.76 462.12 603.76 508.51 727.19 414.56 858.57 515.52 858.57 561.52 772.97 581.4 858.57 684.31 858.57 632.47 722.71 720.18 603.76"/><path class="cls-7" d="M342.84,669q18.86-6.81,54-6.81,3,.48,10.72,1.46t9.85,2L429,604.28q-3.44-1-19.07-2.68t-23.78-1.7a447.34,447.34,0,0,0-80.35,7.54Q264.41,615,250.7,620.35l-15.87,84.38H176.41q-5.64,17.49-11.29,35h63.13L225,757.14H163.31l-11.29,35h66.37L206.56,855H308.13l11.74-62.91h66.19q4.51-17.48,9-35H326.39l3.26-17.44h69.51l9-35h-72Z"/></svg>